<?xml version="1.0" encoding="utf-8"?>
<!-- Generator: Adobe Illustrator 23.0.3, SVG Export Plug-In . SVG Version: 6.00 Build 0)  -->
<svg version="1.1" xmlns="http://www.w3.org/2000/svg" xmlns:xlink="http://www.w3.org/1999/xlink" x="0px" y="0px"
	 viewBox="0 0 1036.18 546.64" style="enable-background:new 0 0 1036.18 546.64;" xml:space="preserve">
<style type="text/css">
	.st0{fill:#2D2D2D;}
	.st1{display:none;}
	.st2{fill:#FCDF57;}
	.st3{fill:#FBED9C;}
	.st4{fill:none;stroke:#FCDF57;stroke-linejoin:bevel;stroke-miterlimit:10;}
	.st5{fill:none;stroke:#FCDF57;stroke-width:0.25;stroke-linejoin:bevel;stroke-miterlimit:10;}
</style>
<g id="Layer_1">
</g>
<g id="Layer_2">
</g>
<g id="Layer_5">
</g>
<g id="Layer_4" class="st1">
</g>
<g id="Layer_6">
</g>
<g id="Layer_3">
	<path d="M21,237.16c-9.72-10.54-14.58-25.41-14.58-44.62V60.43c0-19.2,4.86-34.08,14.58-44.62C30.71,5.27,44.83,0,63.33,0
		c18.5,0,32.61,5.27,42.34,15.81c9.72,10.54,14.58,25.42,14.58,44.62v26H83.71V57.97c0-15.22-6.45-22.84-19.32-22.84
		c-12.88,0-19.32,7.61-19.32,22.84v137.38c0,14.99,6.44,22.49,19.32,22.49c12.88,0,19.32-7.49,19.32-22.49v-37.59h36.54v34.78
		c0,19.21-4.86,34.08-14.58,44.62c-9.72,10.54-23.84,15.81-42.34,15.81C44.83,252.97,30.71,247.7,21,237.16z"/>
	<path d="M156.44,236.8c-10.07-10.77-15.11-26-15.11-45.67V61.84c0-19.68,5.03-34.9,15.11-45.67C166.51,5.39,181.03,0,200,0
		s33.49,5.39,43.57,16.16c10.07,10.78,15.11,26,15.11,45.67v129.29c0,19.67-5.04,34.9-15.11,45.67
		c-10.07,10.78-24.59,16.16-43.57,16.16S166.51,247.58,156.44,236.8z M220.03,193.59V59.38c0-16.16-6.68-24.24-20.03-24.24
		c-13.35,0-20.03,8.08-20.03,24.24v134.21c0,16.16,6.67,24.24,20.03,24.24C213.35,217.83,220.03,209.75,220.03,193.59z"/>
	<path d="M313.84,3.51h52.35l40.05,245.94h-38.65l-7.03-48.84v0.7h-43.92l-7.03,48.13h-35.84L313.84,3.51z M356,167.94L338.78,46.38
		h-0.7l-16.86,121.56H356z"/>
	<path d="M436.27,237.16c-9.72-10.54-14.58-25.41-14.58-44.62V60.43c0-19.2,4.86-34.08,14.58-44.62C445.99,5.27,460.11,0,478.61,0
		c18.5,0,32.61,5.27,42.34,15.81c9.72,10.54,14.58,25.42,14.58,44.62v26h-36.54V57.97c0-15.22-6.45-22.84-19.32-22.84
		c-12.88,0-19.32,7.61-19.32,22.84v137.38c0,14.99,6.44,22.49,19.32,22.49c12.88,0,19.32-7.49,19.32-22.49v-37.59h36.54v34.78
		c0,19.21-4.86,34.08-14.58,44.62c-9.72,10.54-23.84,15.81-42.34,15.81C460.11,252.97,445.99,247.7,436.27,237.16z"/>
	<path d="M558.72,3.51h38.65v100.13h41.46V3.51h38.65v245.94h-38.65V138.78h-41.46v110.67h-38.65V3.51z"/>
	<path d="M706.28,3.51h38.65v245.94h-38.65V3.51z"/>
	<path d="M773.73,3.51h48.49l37.59,147.21h0.7V3.51h34.43v245.94h-39.7L808.87,69.92h-0.7v179.54h-34.43V3.51z"/>
	<path d="M978.56,252.97c-18.74,0-33.03-5.33-42.86-15.99c-9.84-10.66-14.76-25.94-14.76-45.85v-80.46h55.86v35.13h-19.32v48.13
		c0,15.93,6.68,23.89,20.03,23.89c13.35,0,20.03-7.96,20.03-23.89V59.38c0-16.16-6.67-24.24-20.03-24.24
		c-13.35,0-20.03,8.08-20.03,24.24v23.54h-36.54V61.84c0-19.91,4.92-35.19,14.76-45.85C945.53,5.33,959.82,0,978.56,0
		c18.74,0,33.03,5.33,42.86,15.99c9.84,10.66,14.76,25.94,14.76,45.85v129.29c0,19.91-4.92,35.19-14.76,45.85
		C1011.58,247.64,997.3,252.97,978.56,252.97z"/>
	<path d="M63.33,550.16c-18.5,0-32.61-5.27-42.34-15.81c-9.72-10.54-14.58-25.41-14.58-44.62v-34.78h36.54v37.59
		c0,14.99,6.45,22.49,19.32,22.49c12.88,0,19.32-7.49,19.32-22.49V355.16c0-15.22-6.44-22.84-19.32-22.84
		c-12.88,0-19.32,7.61-19.32,22.84v28.46H6.42v-26c0-19.2,4.86-34.08,14.58-44.62c9.72-10.54,23.84-15.81,42.34-15.81
		c18.51,0,32.62,5.27,42.34,15.81c9.72,10.54,14.58,25.42,14.58,44.62v132.1c0,19.21-4.86,34.08-14.58,44.62
		C95.95,544.89,81.84,550.16,63.33,550.16z"/>
	<path d="M143.44,300.7h38.65v210.81h63.59v35.13H143.44V300.7z"/>
	<path d="M264.3,300.7h38.65v245.94H264.3V300.7z"/>
	<path d="M331.75,300.7h48.49l37.59,147.21h0.7V300.7h34.43v245.94h-39.7l-46.38-179.54h-0.7v179.54h-34.43V300.7z"/>
	<path d="M481.77,300.7h38.65v245.94h-38.65V300.7z"/>
	<path d="M561.34,534.35c-9.72-10.54-14.58-25.41-14.58-44.62v-132.1c0-19.2,4.86-34.08,14.58-44.62
		c9.72-10.54,23.83-15.81,42.34-15.81c18.5,0,32.61,5.27,42.34,15.81c9.72,10.54,14.58,25.42,14.58,44.62v26h-36.54v-28.46
		c0-15.22-6.45-22.84-19.32-22.84c-12.88,0-19.32,7.61-19.32,22.84v137.38c0,14.99,6.44,22.49,19.32,22.49
		c12.88,0,19.32-7.49,19.32-22.49v-37.59h36.54v34.78c0,19.21-4.86,34.08-14.58,44.62c-9.72,10.54-23.84,15.81-42.34,15.81
		C585.17,550.16,571.06,544.89,561.34,534.35z"/>
</g>
</svg>
