<?xml version="1.0" encoding="utf-8"?>
<!-- Generator: Adobe Illustrator 23.0.3, SVG Export Plug-In . SVG Version: 6.00 Build 0)  -->
<svg version="1.1" xmlns="http://www.w3.org/2000/svg" xmlns:xlink="http://www.w3.org/1999/xlink" x="0px" y="0px"
	 viewBox="0 0 310.28 519.89" style="enable-background:new 0 0 310.28 519.89;" xml:space="preserve">
<style type="text/css">
	.st0{fill:#F58644;}
	.st1{fill:#BBBBBB;}
	.st2{fill:#CCCCCB;}
	.st3{fill:#EEEDEE;}
	.st4{fill:#939598;}
	.st5{fill:#ABABAB;}
	.st6{fill:#E6E7E8;}
	.st7{fill:url(#SVGID_1_);}
	.st8{fill:url(#SVGID_2_);}
	.st9{fill:url(#SVGID_3_);}
	.st10{fill:url(#SVGID_4_);}
	.st11{fill:url(#SVGID_5_);}
	.st12{fill:url(#SVGID_6_);}
	.st13{fill:url(#SVGID_7_);}
	.st14{fill:url(#SVGID_8_);}
	.st15{fill:url(#SVGID_9_);}
	.st16{fill:url(#SVGID_10_);}
</style>
<g id="Latihan">
	<g>
		<path class="st0" d="M81.09,197.78c2.32,16.3,14.11,108.83-13.75,172.57c-4.33,9.91-9.76,19.4-15.94,28.57
			c-20.84-4.35-48.39-7.99-46.97-25.73v-0.04c1.9-23.66-8.92-168.04,34.01-225.35c4.5-6,8.81-12.23,13.66-18.13
			c2.02-2.44,4.07-4.84,6.16-7.2c10-11.3,20.8-21.52,32.23-30.64c-5.11,11.32-8.84,23.07-11.2,34.99
			c-2.76,13.94-3.66,28.11-2.73,42.17c0.19,2.81,0.45,5.63,0.78,8.43C78.16,184.27,79.41,191.07,81.09,197.78z"/>
		<path class="st1" d="M308.24,413.97c-2.33,13.29-7.26,25.7-14.25,36.66c-4.08,6.4-8.86,12.3-14.23,17.61
			c-4.86,5.23-10.07,10.13-15.58,14.66c-61.86,9.31-109.27-2.04-134.59-17.91c4.73,0.62,27.32,3.26,55.48,1.97c0,0,0,0,0.01,0
			C227.52,465.02,282.6,454.15,308.24,413.97z"/>
		<path class="st2" d="M309.76,396.42c0,5.98-0.52,11.84-1.52,17.53v0.01c-25.64,40.18-80.72,51.05-123.16,52.99
			c0.54-0.09,20.82-3.51,44.76-17.64c21.4-12.63,45.73-33.82,61.55-68.83c0.22-0.47,0.43-0.95,0.64-1.43
			c3.34-7.44,6.12-15.19,8.29-23.18c0.13-0.44,0.24-0.89,0.36-1.33C306.51,367.3,309.76,381.48,309.76,396.42z"/>
		<path class="st3" d="M229.84,449.32c45.13-78.94-11.31-126.07-23.56-135.03c0.02,0,0.04,0.01,0.06,0.01
			c39.5,7.66,70.77,38.35,79.29,77.54c0.06-0.09,0.11-0.19,0.16-0.28C287.79,387.95,270.53,427.22,229.84,449.32z"/>
		<path class="st4" d="M188.32,517.51c-8.71,1.45-17.66,2.21-26.79,2.21c-26.95,0-52.36-6.6-74.7-18.28
			c-0.71-1.1-1.41-2.21-2.1-3.33c-0.01-0.01-0.01-0.02-0.01-0.03c-1.38-2.22-2.72-4.46-4.04-6.73c-3.88-10.71-6.67-21.94-8.22-33.57
			c-0.94-7.05-1.43-14.25-1.43-21.56c0-34.31,10.7-66.11,28.94-92.27c-0.06,0.23-0.12,0.47-0.17,0.7c-0.51,2.2-0.89,4.44-1.15,6.72
			c-2.16,13.46-5.68,42.85-1.6,73.24C102.9,468.29,124.45,514.05,188.32,517.51z"/>
		<path class="st5" d="M264.18,482.9c-8.11,6.69-16.89,12.6-26.21,17.62c-5.66,3.05-11.52,5.76-17.56,8.13
			c-10.23,4.01-20.97,7-32.09,8.86c-63.87-3.45-85.42-49.21-91.27-92.9c2.63,7.05,8.9,20.18,22.23,32.59
			c2.86,2.67,6.31,5.28,10.31,7.79C154.91,480.86,202.32,492.21,264.18,482.9z"/>
		<g>
			<path class="st6" d="M224.22,331.45c3.6,8.37,5.6,17.6,5.6,27.29c0,38.23-31,69.23-69.23,69.23c-29.95,0-55.45-19.02-65.1-45.63
				c-0.61,12.73-0.46,27.5,1.56,42.52c2.63,7.05,8.9,20.18,22.23,32.59c2.86,2.67,6.31,5.28,10.31,7.79
				c4.73,0.62,27.32,3.26,55.48,1.97c0,0,0,0,0.01,0c0.54-0.09,20.82-3.51,44.76-17.64C262.07,393.21,242.51,353.07,224.22,331.45z"
				/>
		</g>
		<path class="st2" d="M160.59,427.72c38.24,0,69.23-31,69.23-69.23c0-9.69-2-18.92-5.6-27.29c-7.32-8.66-14.44-14.35-17.94-16.91
			c-0.08-0.02-0.16-0.03-0.24-0.05c11.35,11.39,18.35,27.11,18.35,44.46c0,34.84-28.24,63.09-63.09,63.09
			c-21.71,0-40.86-10.97-52.21-27.67c-0.38-0.56-0.75-1.12-1.11-1.7c-5.16-8.14-8.51-17.55-9.46-27.65
			c-0.03-0.28-0.06-0.55-0.08-0.83c-0.15-1.73-0.22-3.47-0.22-5.24c0-2.16,0.11-4.3,0.33-6.4v-0.06c0.03-0.29,0.06-0.58,0.1-0.87
			c-1.09,6.81-2.53,17.69-3.16,30.72C105.14,408.7,130.64,427.72,160.59,427.72z"/>
		<linearGradient id="SVGID_1_" gradientUnits="userSpaceOnUse" x1="123.8609" y1="344.2485" x2="200.6781" y2="344.2485">
			<stop  offset="6.766293e-07" style="stop-color:#4199B0"/>
			<stop  offset="1" style="stop-color:#6FCEE6"/>
		</linearGradient>
		<path class="st7" d="M147.53,398.22c0,0-49-33-6-82c25.34-28.88,20-32,27.17-24.38c15.39,16.36,65.25,74.6-3.17,108.38
			c0,0,22-29,4-69C169.53,331.22,177.53,385.22,147.53,398.22z"/>
		<linearGradient id="SVGID_2_" gradientUnits="userSpaceOnUse" x1="168.3389" y1="343.7138" x2="159.6926" y2="-36.7004">
			<stop  offset="0" style="stop-color:#FAE12F"/>
			<stop  offset="1" style="stop-color:#F15D3B"/>
		</linearGradient>
		<path class="st8" d="M196.02,137.1c0,7.63-0.33,15.2-0.98,22.68c-1.16,13.38-3.35,26.46-6.48,39.19
			c-2.46,10.03-8.97,23.66-17.43,38.62c-0.01,0.01-0.01,0.01-0.01,0.02c-0.33,0.59-0.67,1.18-1.02,1.78
			c-2.09,3.67-4.31,7.42-6.61,11.21v0.01c-4.09,6.75-8.43,13.61-12.86,20.43c0,0-0.01,0-0.01,0.01
			c-5.24,8.06-10.62,16.06-15.84,23.66c34.32-58.92,49.47-148.81,56.05-209.35c2.8,13.71,4.5,27.84,5.02,42.26
			C195.96,130.77,196.02,133.92,196.02,137.1z"/>
		<linearGradient id="SVGID_3_" gradientUnits="userSpaceOnUse" x1="9.6637" y1="446.3953" x2="364.2288" y2="-0.6286">
			<stop  offset="0" style="stop-color:#FAE12F"/>
			<stop  offset="1" style="stop-color:#F15D3B"/>
		</linearGradient>
		<path class="st9" d="M190.83,85.36c-6.58,60.54-21.73,150.43-56.05,209.35c-2.09,3.05-4.16,6.04-6.19,8.95v0.01
			c-4.09,5.86-8,11.4-11.58,16.44c-2.04,2.85-3.97,5.55-5.76,8.05c-4.95,6.91-8.9,12.36-11.26,15.76c-0.01,0-0.01,0.01-0.02,0.02
			c-14.44,20.71-24.15,44.95-27.57,71.17c-0.9,6.91-1.37,13.95-1.37,21.11c0,7.31,0.49,14.51,1.43,21.56
			c1.55,11.63,4.34,22.86,8.22,33.57c-1.33-2.29-2.62-4.61-3.88-6.95c-5.55-10.33-10.43-21.08-14.56-32.19
			c-9.39-25.24-14.94-52.35-15.96-80.6c-0.07-2-0.12-4.02-0.15-6.04c-0.01-1.14-0.02-2.29-0.02-3.43c0-10.39,0.62-20.62,1.81-30.69
			c1.19-10.09,2.97-20,5.29-29.7c2.72-11.4,6.21-22.5,10.39-33.26c7.99-20.53,18.53-39.79,31.23-57.39c0.79-1.1,1.61-2.2,2.43-3.28
			c9.86-13.22,20.93-25.48,33.09-36.59c3.03-2.24,5.98-4.58,8.84-7.02c2.39-2.03,4.72-4.13,6.99-6.3c2.04-1.95,4.03-3.97,5.96-6.01
			c0.35-0.37,0.7-0.75,1.04-1.13c1.45-1.55,2.86-3.13,4.23-4.74c0.2-0.24,0.3-0.37,0.3-0.37c2.73-3.22,5.34-6.54,7.81-9.97
			c1.95-2.69,3.82-5.45,5.6-8.27c2.02-3.2,3.93-6.47,5.73-9.81c4.79-8.9,8.77-18.31,11.85-28.12c0.54-1.74,1.06-3.49,1.54-5.25
			c0.15,0.12,0.29,0.24,0.44,0.38c0.04,0.19,0.08,0.37,0.11,0.56C190.8,85.24,190.81,85.3,190.83,85.36z"/>
		<linearGradient id="SVGID_4_" gradientUnits="userSpaceOnUse" x1="61.1698" y1="487.0551" x2="-48.4701" y2="71.6612">
			<stop  offset="0" style="stop-color:#FAE12F"/>
			<stop  offset="1" style="stop-color:#F15D3B"/>
		</linearGradient>
		<path class="st10" d="M86.83,501.43c-0.28-0.14-0.55-0.28-0.83-0.44c-0.18-0.09-0.35-0.18-0.53-0.28c0,0,0,0-0.01-0.01
			c-0.45-0.22-0.9-0.47-1.35-0.72c-40.56-22.2-70.56-61.31-80.51-107.83c-0.35-1.62-0.67-3.25-0.97-4.9
			c-1.71-9.41-2.6-19.13-2.6-29.03c0-18.48,3.1-36.22,8.81-52.74c5.79-16.78,14.27-32.31,24.95-46.07c0.11,0.77,0.23,1.54,0.35,2.31
			c4.34,28.32,9.93,52.19,14.02,67.78c-1.35,10.69-2.05,21.59-2.05,32.64c0,3.16,0.06,6.33,0.17,9.47
			c1.02,28.25,6.57,55.36,15.96,80.6c5.07,13.63,11.25,26.71,18.44,39.14c1.32,2.26,2.66,4.51,4.04,6.73c0,0.01,0,0.02,0.01,0.03
			C85.42,499.23,86.12,500.34,86.83,501.43z"/>
		<linearGradient id="SVGID_5_" gradientUnits="userSpaceOnUse" x1="18.7843" y1="430.6977" x2="103.2078" y2="74.6773">
			<stop  offset="0" style="stop-color:#FAE12F"/>
			<stop  offset="1" style="stop-color:#F15D3B"/>
		</linearGradient>
		<path class="st11" d="M96.53,208.79c-0.57,0.77-1.14,1.53-1.7,2.31c-19.36,26.82-33.69,57.49-41.62,90.65
			c-1.31,5.48-2.45,11.02-3.4,16.63c-0.64,3.68-1.19,7.39-1.65,11.12c-4.09-15.59-9.68-39.46-14.02-67.78
			c0.11-1.06,0.23-2.13,0.35-3.21c0.2-0.26,0.4-0.52,0.61-0.78c0-0.01,0.01-0.01,0.01-0.02c0.03-0.04,0.05-0.05,0.08-0.09
			c0.01-0.01,0.02-0.02,0.04-0.03c3.35-3.63,6.61-7.36,9.76-11.18c0-0.01,0.02-0.02,0.02-0.02c12.44-15.1,23.2-31.64,31.99-49.31
			h0.01c5.82-11.72,10.78-23.92,14.79-36.55c7.82-24.56,12.05-50.69,12.11-77.82C104.53,110.08,104.25,160.49,96.53,208.79z"/>
		<linearGradient id="SVGID_6_" gradientUnits="userSpaceOnUse" x1="33.4254" y1="261.005" x2="35.3365" y2="259.0939">
			<stop  offset="0" style="stop-color:#FAE12F"/>
			<stop  offset="1" style="stop-color:#F15D3B"/>
		</linearGradient>
		<path class="st12" d="M33.79,259.41c0.23-0.31,0.46-0.61,0.7-0.9c-0.12,1.08-0.24,2.15-0.35,3.21
			C34.02,260.95,33.9,260.18,33.79,259.41z"/>
		<linearGradient id="SVGID_7_" gradientUnits="userSpaceOnUse" x1="150.279" y1="340.4255" x2="67.5966" y2="-63.5705">
			<stop  offset="2.557339e-07" style="stop-color:#F15D3B"/>
			<stop  offset="1" style="stop-color:#FAE12F"/>
		</linearGradient>
		<path class="st13" d="M115.47,186.76l-0.01,0.01c-6.48,6.7-12.66,13.73-18.2,21.05c-0.24,0.32-0.48,0.65-0.73,0.97
			c7.72-48.3,8-98.71,7.38-126.08v-0.57c0-6.47-0.24-12.88-0.72-19.23c-0.01-0.17-0.02-0.32-0.03-0.45s-0.01-0.23-0.02-0.31
			c-0.01-0.12-0.01-0.18-0.01-0.18c-1.55-20.13-5.41-39.61-11.31-58.18C104.06,19.65,146.7,84.65,115.47,186.76z"/>
		<linearGradient id="SVGID_8_" gradientUnits="userSpaceOnUse" x1="88.3542" y1="10.5158" x2="249.4884" y2="281.9547">
			<stop  offset="0" style="stop-color:#FAE12F"/>
			<stop  offset="1" style="stop-color:#F15D3B"/>
		</linearGradient>
		<path class="st14" d="M91.33,0.52c-0.23-0.12-0.46-0.23-0.69-0.35c0.08,0.25,0.16,0.49,0.24,0.74c0.23,0.69,0.45,1.37,0.67,2.06
			c7.26,8.54,59.11,73,49.66,160.01c1.44-1.34,3.04-2.96,4.97-5.07c2.04-1.95,4.03-3.97,5.96-6.01
			c9.66-10.26,17.98-21.78,24.71-34.29C168.37,66.48,135.88,23.44,91.33,0.52z"/>
		<linearGradient id="SVGID_9_" gradientUnits="userSpaceOnUse" x1="103.1604" y1="72.585" x2="103.9104" y2="72.585">
			<stop  offset="0" style="stop-color:#FAE12F"/>
			<stop  offset="1" style="stop-color:#F15D3B"/>
		</linearGradient>
		<path class="st15" d="M103.16,62.46c0.01,0.13,0.02,0.28,0.03,0.45c0.13,2.44,0.49,9.48,0.72,19.8"/>
		<linearGradient id="SVGID_10_" gradientUnits="userSpaceOnUse" x1="79.1787" y1="22.3834" x2="202.6958" y2="324.5489">
			<stop  offset="0" style="stop-color:#FAE12F"/>
			<stop  offset="1" style="stop-color:#F15D3B"/>
		</linearGradient>
		<path class="st16" d="M141.21,162.98c-3.55,3.29-6.06,4.93-9.68,8.24c-5.43,4.96-10.83,10.13-16.06,15.54
			C146.7,84.65,104.06,19.65,91.82,3.79c-0.09-0.28-0.18-0.55-0.27-0.82C98.81,11.51,150.66,75.97,141.21,162.98z"/>
	</g>
</g>
<g id="Layer_12">
</g>
</svg>
