<?xml version="1.0" encoding="utf-8"?>
<!-- Generator: Adobe Illustrator 23.0.3, SVG Export Plug-In . SVG Version: 6.00 Build 0)  -->
<svg version="1.1" id="Layer_1" xmlns="http://www.w3.org/2000/svg" xmlns:xlink="http://www.w3.org/1999/xlink" x="0px" y="0px"
	 viewBox="0 0 2137.75 238.41" style="enable-background:new 0 0 2137.75 238.41;" xml:space="preserve">
<g>
	<g>
		<path d="M79.42,207.19c-15.73,0-30.79-2.26-45.18-6.76C19.85,195.93,8.44,190.12,0,183.02l12.95-29.07
			c8.05,6.33,18.03,11.61,29.93,15.83c11.89,4.22,24.07,6.33,36.54,6.33c10.55,0,19.09-1.15,25.61-3.45
			c6.52-2.3,11.32-5.42,14.39-9.35c3.07-3.93,4.61-8.39,4.61-13.38c0-6.14-2.21-11.08-6.62-14.82c-4.42-3.74-10.12-6.72-17.13-8.92
			c-7-2.2-14.77-4.27-23.31-6.19c-8.54-1.91-17.07-4.17-25.61-6.76c-8.54-2.59-16.31-5.94-23.31-10.07
			c-7-4.12-12.71-9.64-17.12-16.55c-4.42-6.9-6.62-15.73-6.62-26.47c0-10.94,2.92-20.96,8.77-30.07
			c5.85-9.11,14.77-16.4,26.76-21.87C51.84,2.74,67.05,0,85.47,0c12.09,0,24.07,1.54,35.97,4.61c11.89,3.07,22.25,7.48,31.08,13.24
			l-11.8,29.07c-9.02-5.37-18.32-9.35-27.91-11.94c-9.6-2.59-18.8-3.89-27.63-3.89c-10.36,0-18.75,1.25-25.18,3.74
			c-6.43,2.49-11.13,5.75-14.1,9.78c-2.98,4.03-4.46,8.63-4.46,13.81c0,6.14,2.16,11.08,6.48,14.82s9.97,6.67,16.98,8.78
			c7,2.11,14.82,4.17,23.45,6.19s17.22,4.27,25.75,6.76c8.54,2.5,16.3,5.76,23.31,9.78c7,4.03,12.66,9.5,16.98,16.4
			c4.32,6.91,6.48,15.64,6.48,26.19c0,10.75-2.93,20.67-8.78,29.78c-5.85,9.11-14.82,16.41-26.91,21.87S97.84,207.19,79.42,207.19z"
			/>
		<path d="M249.78,204.32V2.88h82.88c17.84,0,33.14,2.88,45.9,8.63c12.76,5.75,22.59,14.01,29.5,24.75
			c6.91,10.75,10.36,23.5,10.36,38.27c0,14.78-3.46,27.53-10.36,38.27c-6.9,10.75-16.74,18.99-29.5,24.75
			c-12.76,5.75-28.06,8.63-45.9,8.63H270.5l16.69-17.56v75.68H249.78z M287.19,132.66l-16.69-18.13h60.43
			c16.5,0,28.92-3.5,37.26-10.5c8.35-7,12.52-16.83,12.52-29.5c0-12.85-4.17-22.73-12.52-29.64c-8.34-6.9-20.77-10.36-37.26-10.36
			H270.5l16.69-18.42V132.66z"/>
		<path d="M545.03,172.95H658.7v31.37H507.62V2.88h147.05v31.37H545.03V172.95z M542.15,86.62H642.3v30.79H542.15V86.62z"/>
	</g>
	<g>
		<path d="M1293.73,208.19c-15.35,0-29.59-2.54-42.73-7.62c-13.14-5.08-24.56-12.28-34.24-21.58c-9.69-9.3-17.22-20.29-22.59-32.95
			c-5.37-12.66-8.06-26.47-8.06-41.44s2.68-28.78,8.06-41.44c5.37-12.66,12.95-23.64,22.73-32.95c9.78-9.3,21.2-16.5,34.25-21.58
			c13.04-5.08,27.34-7.63,42.88-7.63c16.5,0,31.56,2.83,45.18,8.49c13.62,5.66,25.13,14.05,34.53,25.18l-24.17,22.73
			c-7.29-7.87-15.44-13.76-24.46-17.7c-9.02-3.93-18.8-5.9-29.35-5.9c-10.55,0-20.19,1.73-28.92,5.18
			c-8.73,3.45-16.31,8.34-22.73,14.68c-6.43,6.33-11.42,13.81-14.97,22.44c-3.55,8.63-5.32,18.13-5.32,28.49s1.77,19.86,5.32,28.49
			c3.55,8.63,8.54,16.11,14.97,22.44c6.43,6.33,14,11.22,22.73,14.68c8.73,3.46,18.37,5.18,28.92,5.18c10.55,0,20.33-1.96,29.35-5.9
			c9.02-3.93,17.17-9.93,24.46-17.98l24.17,23.02c-9.4,10.93-20.91,19.28-34.53,25.03C1325.58,205.32,1310.42,208.19,1293.73,208.19
			z"/>
		<path d="M1428.69,205.32l90.65-201.44h36.83l90.93,201.44h-39.14l-77.98-181.58h14.96l-77.7,181.58H1428.69z M1470.42,158.7
			l10.07-29.35h108.78l10.07,29.35H1470.42z"/>
		<path d="M1724.52,205.32V3.88h82.88c17.84,0,33.14,2.88,45.9,8.63c12.76,5.75,22.59,14.01,29.5,24.75
			c6.91,10.75,10.36,23.5,10.36,38.27c0,14.78-3.46,27.48-10.36,38.13c-6.9,10.65-16.74,18.8-29.5,24.46
			c-12.76,5.66-28.06,8.49-45.9,8.49h-62.16l16.69-16.98v75.68H1724.52z M1761.93,133.66l-16.69-17.84h60.43
			c16.5,0,28.92-3.55,37.26-10.65c8.35-7.1,12.52-16.98,12.52-29.64c0-12.85-4.17-22.73-12.52-29.64
			c-8.34-6.9-20.77-10.36-37.26-10.36h-60.43l16.69-18.42V133.66z M1856.32,205.32l-50.94-73.09h40l51.22,73.09H1856.32z"/>
		<path d="M2024.08,173.95h113.67v31.37h-151.08V3.88h147.05v31.37h-109.64V173.95z M2021.2,87.62h100.14v30.79H2021.2V87.62z"/>
	</g>
	<g>
		<path d="M838.42,49.32c1.85-0.71,3.57-1.28,5.23-1.74c0.01,0,0.01,0,0.01,0c21.1,8.07,47.06,18.51,56.72,24.68
			c-15.07,1.66-30.84-0.41-41.53-2.94c-6.55-1.54-11.22-3.27-12.64-4.4C838.42,58.69,838.42,49.32,838.42,49.32z"/>
		<path d="M813.22,165.87c4.88-38.72,31.61-76.33,44.16-92.18c0.01-0.01,0.01-0.01,0.01-0.01c11.97,2.83,30.27,5.07,46.84,2.17
			C905.25,83.25,850.82,160.92,813.22,165.87z"/>
		<path d="M1180.56,127.52"/>
		<path d="M976.31,84.39c-2.88,2.19-5.06,3.15-5.06,3.15s-29.68-26.71-56.76-18.18c-4.49,1.41-9.26,2.34-14.08,2.89
			c-0.01-0.01-0.01,0-0.01,0c-15.07,1.66-30.84-0.41-41.53-2.94c-6.55-1.54-11.22-3.27-12.64-4.4c-7.79-6.22-7.79-15.59-7.79-15.59
			c1.85-0.71,3.57-1.28,5.23-1.74c0.01,0,0.01,0,0.01,0c14.02-3.94,21.83-0.17,31.11-3.82c10.39-4.07,33.02-6.67,33.02-6.67
			s31.91-9.65,38.96-6.69c7.05,2.98,40.44,5.94,40.44,5.94C996.35,64.3,983.87,78.62,976.31,84.39z"/>
		<path d="M960.15,133.71v-2.47l0.51,0.36c4.85-19.23,16.31-24.53,23.89-25.85c-8.71-7.82-14.75-13.85-14.75-13.85
			s-22.08-19.87-45.52-19.87c-3.75,0-7.51,0.51-11.25,1.69c-2.83,0.9-5.78,1.6-8.79,2.12c-16.57,2.91-34.86,0.67-46.84-2.17
			c0,0,0,0-0.01,0.01c-12.56,15.86-39.28,53.47-44.16,92.18c0,0,45.52,42.54,82.62,45.52c20.3,6.98,54.02-38.51,75.6-72.05
			l-10.78-7.73C960.48,132.29,960.31,132.98,960.15,133.71z M885.77,181.33c55.28-28.59,62.56-81.79,62.97-85.09
			C945.91,157.92,887.59,180.64,885.77,181.33z"/>
		<path d="M971.45,139.33l48.08,34.45c0,0,28.79-5.14,19.27-32.64c-11.58-0.07-33.47-17.15-49.5-31.17
			C985.97,115.78,979.57,126.7,971.45,139.33z"/>
		<path d="M984.55,105.76c-7.59,1.32-19.04,6.63-23.89,25.84l10.78,7.73c8.13-12.63,14.53-23.55,17.85-29.36
			C987.65,108.52,986.06,107.11,984.55,105.76z"/>
		<path d="M960.15,133.71c0.16-0.73,0.33-1.42,0.51-2.11l-0.51-0.36V133.71z"/>
		<path d="M1123.59,108.85c-15.4,5.04-32.18,10.57-46,15.13c-16.49,5.45-28.77,9.52-29.41,9.72c-0.01,0-0.01,0-0.03,0.01
			c-1.28,0.8-2.66,1.57-4.17,2.31c-1.06,0.54-2.33,0.77-3.72,0.76c-11.58-0.06-33.47-17.15-49.5-31.17
			c-1.66-1.44-3.24-2.85-4.75-4.21c-4.35-3.91-8.04-7.37-10.64-9.85c-2.6-2.49-4.11-4-4.11-4s-1.74-53.07,15.96-51.2
			c17.7,1.87,18.18,6.67,31.29,8.91c2.7,0.45,4.27,0.86,5.28,1.42l13.18-4.14l38.06-11.96
			C1096.71,49.45,1119.11,76.25,1123.59,108.85z"/>
		<path d="M939.99,162.4l54.92,40.57c0,0,17.81-0.49,21.77-25.73l-62.83-46.01L939.99,162.4z"/>
		<path d="M938.77,163.67l51.45,39.58c0,0-3.22,20.28-18.3,21.52l-49.72-36.86L938.77,163.67z"/>
		<path d="M919.25,189.89l47,36.12c0,0-4.21,16.08-19.05,16.33c-14.84,0.25-45.77-32.17-45.77-32.17L919.25,189.89z"/>
		<path d="M857.4,73.68c0,0,0,0-0.01,0.01c-12.56,15.86-39.28,53.47-44.16,92.18c0,0-12.5-18.67-74.22-40.57
			c-5.69-97.71,74.22-89,74.22-89s9.17,3.27,21.68,7.96c0.32,1.82,0.44,3.68,0.33,5.6C834.24,68.4,857.4,73.68,857.4,73.68z"/>
		<path d="M1035.11,30.57"/>
	</g>
</g>
</svg>
