<?xml version="1.0" encoding="utf-8"?>
<!-- Generator: Adobe Illustrator 23.0.3, SVG Export Plug-In . SVG Version: 6.00 Build 0)  -->
<svg version="1.1" id="Layer_1" xmlns="http://www.w3.org/2000/svg" xmlns:xlink="http://www.w3.org/1999/xlink" x="0px" y="0px"
	 viewBox="0 0 391.15 174.64" style="enable-background:new 0 0 391.15 174.64;" xml:space="preserve">
<style type="text/css">
	.st0{fill:#231F20;}
	.st1{fill:#231F20;stroke:#FFFFFF;stroke-linejoin:bevel;stroke-miterlimit:10;}
	.st2{fill:#231F20;stroke:#FFFFFF;stroke-width:0.25;stroke-linejoin:bevel;stroke-miterlimit:10;}
</style>
<g id="Layer_5">
	<g>
		<g>
			<path class="st0" d="M10.02,166.91H8.54v-14h9.6v1.28h-8.12C10.02,154.19,10.02,166.91,10.02,166.91z M9.86,159.69h7.4v1.28h-7.4
				C9.86,160.97,9.86,159.69,9.86,159.69z"/>
			<path class="st0" d="M28.84,167.01c-0.89,0-1.67-0.17-2.34-0.5s-1.18-0.83-1.55-1.5c-0.37-0.67-0.55-1.5-0.55-2.5v-6.1h1.42v5.94
				c0,1.12,0.28,1.96,0.83,2.53c0.55,0.57,1.33,0.85,2.33,0.85c0.73,0,1.37-0.15,1.91-0.45c0.54-0.3,0.95-0.74,1.24-1.31
				c0.29-0.57,0.43-1.26,0.43-2.06v-5.5h1.42v10.5h-1.36v-2.88l0.22,0.52c-0.33,0.77-0.85,1.38-1.55,1.81S29.78,167.01,28.84,167.01
				z"/>
			<path class="st0" d="M39.9,157.59v-1.18h6.5v1.18H39.9z M44.86,167.01c-0.99,0-1.75-0.27-2.28-0.8s-0.8-1.29-0.8-2.26v-9.86h1.42
				v9.78c0,0.61,0.16,1.09,0.47,1.42s0.76,0.5,1.35,0.5c0.63,0,1.15-0.18,1.56-0.54l0.5,1.02c-0.28,0.25-0.62,0.44-1.01,0.56
				C45.68,166.95,45.28,167.01,44.86,167.01z"/>
			<path class="st0" d="M57.6,167.01c-0.89,0-1.67-0.17-2.34-0.5c-0.67-0.33-1.18-0.83-1.55-1.5s-0.55-1.5-0.55-2.5v-6.1h1.42v5.94
				c0,1.12,0.28,1.96,0.83,2.53c0.55,0.57,1.33,0.85,2.33,0.85c0.73,0,1.37-0.15,1.91-0.45s0.95-0.74,1.24-1.31
				c0.29-0.57,0.43-1.26,0.43-2.06v-5.5h1.42v10.5h-1.36v-2.88l0.22,0.52c-0.33,0.77-0.85,1.38-1.55,1.81S58.54,167.01,57.6,167.01z
				"/>
			<path class="st0" d="M70.3,166.91v-10.5h1.36v2.86l-0.14-0.5c0.29-0.8,0.79-1.41,1.48-1.83s1.55-0.63,2.58-0.63v1.38
				c-0.05,0-0.11,0-0.16-0.01s-0.11-0.01-0.16-0.01c-1.11,0-1.97,0.34-2.6,1.01s-0.94,1.63-0.94,2.87v5.36H70.3z"/>
			<path class="st0" d="M86.38,167.01c-1.09,0-2.05-0.23-2.88-0.69s-1.47-1.09-1.94-1.9s-0.7-1.73-0.7-2.77
				c0-1.04,0.22-1.96,0.67-2.76c0.45-0.8,1.06-1.43,1.84-1.89s1.66-0.69,2.63-0.69c0.99,0,1.86,0.22,2.63,0.67s1.37,1.07,1.81,1.88
				c0.44,0.81,0.66,1.74,0.66,2.79c0,0.07,0,0.14-0.01,0.21s-0.01,0.15-0.01,0.23h-9.14v-1.06h8.38l-0.56,0.42
				c0-0.76-0.16-1.44-0.49-2.03c-0.33-0.59-0.77-1.06-1.33-1.39c-0.56-0.33-1.21-0.5-1.94-0.5c-0.72,0-1.37,0.17-1.94,0.5
				s-1.02,0.8-1.34,1.4c-0.32,0.6-0.48,1.29-0.48,2.06v0.22c0,0.8,0.18,1.5,0.53,2.11s0.85,1.08,1.48,1.42
				c0.63,0.34,1.36,0.51,2.17,0.51c0.64,0,1.24-0.11,1.79-0.34s1.03-0.57,1.43-1.04l0.8,0.92c-0.47,0.56-1.05,0.99-1.75,1.28
				S87.22,167.01,86.38,167.01z"/>
			<path class="st0" d="M106.58,167.01c-0.29,0-0.54-0.11-0.75-0.32s-0.31-0.47-0.31-0.78c0-0.32,0.1-0.58,0.31-0.78
				s0.46-0.3,0.75-0.3s0.54,0.1,0.75,0.3s0.31,0.46,0.31,0.78c0,0.31-0.1,0.57-0.31,0.78C107.13,166.9,106.88,167.01,106.58,167.01z
				"/>
			<path class="st0" d="M127.28,167.03c-1.04,0-2.04-0.17-2.99-0.51s-1.69-0.78-2.21-1.31l0.58-1.14c0.49,0.48,1.16,0.88,1.99,1.21
				s1.71,0.49,2.63,0.49c0.88,0,1.6-0.11,2.15-0.33c0.55-0.22,0.96-0.52,1.22-0.89s0.39-0.79,0.39-1.24c0-0.55-0.16-0.99-0.47-1.32
				s-0.72-0.6-1.23-0.79c-0.51-0.19-1.07-0.36-1.68-0.51c-0.61-0.15-1.23-0.3-1.84-0.47c-0.61-0.17-1.18-0.39-1.69-0.67
				s-0.93-0.65-1.24-1.11s-0.47-1.06-0.47-1.81c0-0.69,0.18-1.33,0.55-1.91s0.93-1.05,1.69-1.4s1.73-0.53,2.92-0.53
				c0.79,0,1.57,0.11,2.34,0.33c0.77,0.22,1.44,0.52,2,0.91l-0.5,1.18c-0.6-0.4-1.24-0.69-1.91-0.88s-1.32-0.28-1.95-0.28
				c-0.84,0-1.53,0.11-2.08,0.34s-0.95,0.53-1.21,0.91s-0.39,0.81-0.39,1.29c0,0.55,0.16,0.99,0.47,1.32s0.73,0.59,1.24,0.78
				c0.51,0.19,1.08,0.35,1.69,0.5s1.22,0.31,1.83,0.48s1.17,0.4,1.68,0.67s0.93,0.64,1.24,1.09c0.31,0.45,0.47,1.05,0.47,1.78
				c0,0.68-0.19,1.31-0.56,1.89s-0.94,1.05-1.71,1.4C129.47,166.85,128.48,167.03,127.28,167.03z"/>
			<path class="st0" d="M143.38,167.01c-1.04,0-1.97-0.23-2.79-0.69c-0.82-0.46-1.46-1.09-1.93-1.9c-0.47-0.81-0.7-1.73-0.7-2.77
				c0-1.05,0.23-1.98,0.7-2.78s1.11-1.43,1.93-1.88c0.82-0.45,1.75-0.68,2.79-0.68c0.89,0,1.7,0.17,2.42,0.52s1.29,0.87,1.7,1.56
				l-1.06,0.72c-0.36-0.53-0.81-0.93-1.34-1.18s-1.11-0.38-1.74-0.38c-0.75,0-1.42,0.17-2.02,0.51s-1.07,0.82-1.42,1.43
				s-0.52,1.33-0.52,2.16s0.17,1.55,0.52,2.16s0.82,1.09,1.42,1.43c0.6,0.34,1.27,0.51,2.02,0.51c0.63,0,1.21-0.13,1.74-0.38
				s0.98-0.64,1.34-1.16l1.06,0.72c-0.41,0.68-0.98,1.2-1.7,1.55C145.08,166.83,144.28,167.01,143.38,167.01z"/>
			<path class="st0" d="M154.6,154.09c-0.29,0-0.54-0.1-0.74-0.3c-0.2-0.2-0.3-0.44-0.3-0.72s0.1-0.52,0.3-0.71s0.45-0.29,0.74-0.29
				c0.29,0,0.54,0.09,0.74,0.28c0.2,0.19,0.3,0.42,0.3,0.7c0,0.29-0.1,0.54-0.29,0.74C155.16,153.99,154.91,154.09,154.6,154.09z
				 M153.88,166.91v-10.5h1.42v10.5H153.88z"/>
			<path class="st0" d="M167.32,167.01c-1.09,0-2.05-0.23-2.88-0.69s-1.47-1.09-1.94-1.9s-0.7-1.73-0.7-2.77
				c0-1.04,0.22-1.96,0.67-2.76c0.45-0.8,1.06-1.43,1.84-1.89s1.66-0.69,2.63-0.69c0.99,0,1.86,0.22,2.63,0.67s1.37,1.07,1.81,1.88
				s0.66,1.74,0.66,2.79c0,0.07,0,0.14-0.01,0.21s-0.01,0.15-0.01,0.23h-9.14v-1.06h8.38l-0.56,0.42c0-0.76-0.16-1.44-0.49-2.03
				s-0.77-1.06-1.33-1.39s-1.21-0.5-1.94-0.5c-0.72,0-1.37,0.17-1.94,0.5s-1.02,0.8-1.34,1.4s-0.48,1.29-0.48,2.06v0.22
				c0,0.8,0.18,1.5,0.53,2.11s0.85,1.08,1.48,1.42c0.63,0.34,1.36,0.51,2.17,0.51c0.64,0,1.24-0.11,1.79-0.34
				c0.55-0.23,1.03-0.57,1.43-1.04l0.8,0.92c-0.47,0.56-1.05,0.99-1.75,1.28S168.16,167.01,167.32,167.01z"/>
			<path class="st0" d="M183.9,156.31c0.85,0,1.6,0.16,2.25,0.49s1.15,0.82,1.52,1.49c0.37,0.67,0.55,1.51,0.55,2.52v6.1h-1.42
				v-5.96c0-1.11-0.28-1.94-0.83-2.51c-0.55-0.57-1.33-0.85-2.33-0.85c-0.75,0-1.4,0.15-1.95,0.45s-0.98,0.73-1.28,1.3
				s-0.45,1.25-0.45,2.05v5.52h-1.42v-10.5h1.36v2.88l-0.22-0.54c0.33-0.76,0.87-1.36,1.6-1.79
				C182.01,156.53,182.89,156.31,183.9,156.31z"/>
			<path class="st0" d="M200.02,167.01c-1.04,0-1.97-0.23-2.79-0.69c-0.82-0.46-1.46-1.09-1.93-1.9c-0.47-0.81-0.7-1.73-0.7-2.77
				c0-1.05,0.23-1.98,0.7-2.78s1.11-1.43,1.93-1.88c0.82-0.45,1.75-0.68,2.79-0.68c0.89,0,1.7,0.17,2.42,0.52s1.29,0.87,1.7,1.56
				l-1.06,0.72c-0.36-0.53-0.81-0.93-1.34-1.18s-1.11-0.38-1.74-0.38c-0.75,0-1.42,0.17-2.02,0.51s-1.07,0.82-1.42,1.43
				s-0.52,1.33-0.52,2.16s0.17,1.55,0.52,2.16s0.82,1.09,1.42,1.43c0.6,0.34,1.27,0.51,2.02,0.51c0.63,0,1.21-0.13,1.74-0.38
				s0.98-0.64,1.34-1.16l1.06,0.72c-0.41,0.68-0.98,1.2-1.7,1.55C201.72,166.83,200.91,167.01,200.02,167.01z"/>
			<path class="st0" d="M214.98,167.01c-1.09,0-2.05-0.23-2.88-0.69s-1.47-1.09-1.94-1.9s-0.7-1.73-0.7-2.77
				c0-1.04,0.22-1.96,0.67-2.76s1.06-1.43,1.84-1.89s1.66-0.69,2.63-0.69c0.99,0,1.86,0.22,2.63,0.67s1.37,1.07,1.81,1.88
				s0.66,1.74,0.66,2.79c0,0.07,0,0.14-0.01,0.21s-0.01,0.15-0.01,0.23h-9.14v-1.06h8.38l-0.56,0.42c0-0.76-0.16-1.44-0.49-2.03
				s-0.77-1.06-1.33-1.39s-1.21-0.5-1.94-0.5c-0.72,0-1.37,0.17-1.94,0.5s-1.02,0.8-1.34,1.4c-0.32,0.6-0.48,1.29-0.48,2.06v0.22
				c0,0.8,0.18,1.5,0.53,2.11s0.85,1.08,1.48,1.42c0.63,0.34,1.36,0.51,2.17,0.51c0.64,0,1.24-0.11,1.79-0.34
				c0.55-0.23,1.03-0.57,1.43-1.04l0.8,0.92c-0.47,0.56-1.05,0.99-1.75,1.28S215.82,167.01,214.98,167.01z"/>
			<path class="st0" d="M235.18,167.01c-0.29,0-0.54-0.11-0.75-0.32s-0.31-0.47-0.31-0.78c0-0.32,0.1-0.58,0.31-0.78
				c0.21-0.2,0.46-0.3,0.75-0.3s0.54,0.1,0.75,0.3s0.31,0.46,0.31,0.78c0,0.31-0.1,0.57-0.31,0.78
				C235.72,166.9,235.47,167.01,235.18,167.01z"/>
			<path class="st0" d="M254.74,166.91v-12.72h-4.92v-1.28h11.32v1.28h-4.92v12.72H254.74z"/>
			<path class="st0" d="M271.26,167.01c-1.09,0-2.05-0.23-2.88-0.69c-0.83-0.46-1.47-1.09-1.94-1.9s-0.7-1.73-0.7-2.77
				c0-1.04,0.22-1.96,0.67-2.76s1.06-1.43,1.84-1.89s1.66-0.69,2.63-0.69c0.99,0,1.86,0.22,2.63,0.67c0.77,0.45,1.37,1.07,1.81,1.88
				s0.66,1.74,0.66,2.79c0,0.07,0,0.14-0.01,0.21s-0.01,0.15-0.01,0.23h-9.14v-1.06h8.38l-0.56,0.42c0-0.76-0.16-1.44-0.49-2.03
				s-0.77-1.06-1.33-1.39s-1.21-0.5-1.94-0.5c-0.72,0-1.37,0.17-1.94,0.5s-1.02,0.8-1.34,1.4c-0.32,0.6-0.48,1.29-0.48,2.06v0.22
				c0,0.8,0.18,1.5,0.53,2.11s0.85,1.08,1.48,1.42s1.36,0.51,2.17,0.51c0.64,0,1.24-0.11,1.79-0.34c0.55-0.23,1.03-0.57,1.43-1.04
				l0.8,0.92c-0.47,0.56-1.05,0.99-1.75,1.28S272.1,167.01,271.26,167.01z"/>
			<path class="st0" d="M286.84,167.01c-1.04,0-1.97-0.23-2.79-0.69s-1.46-1.09-1.93-1.9s-0.7-1.73-0.7-2.77
				c0-1.05,0.23-1.98,0.7-2.78s1.11-1.43,1.93-1.88c0.82-0.45,1.75-0.68,2.79-0.68c0.89,0,1.7,0.17,2.42,0.52s1.29,0.87,1.7,1.56
				l-1.06,0.72c-0.36-0.53-0.81-0.93-1.34-1.18s-1.11-0.38-1.74-0.38c-0.75,0-1.42,0.17-2.02,0.51c-0.6,0.34-1.07,0.82-1.42,1.43
				s-0.52,1.33-0.52,2.16s0.17,1.55,0.52,2.16c0.35,0.61,0.82,1.09,1.42,1.43s1.27,0.51,2.02,0.51c0.63,0,1.21-0.13,1.74-0.38
				s0.98-0.64,1.34-1.16l1.06,0.72c-0.41,0.68-0.98,1.2-1.7,1.55C288.54,166.83,287.73,167.01,286.84,167.01z"/>
			<path class="st0" d="M302.7,156.31c0.85,0,1.6,0.16,2.25,0.49s1.15,0.82,1.52,1.49s0.55,1.51,0.55,2.52v6.1h-1.42v-5.96
				c0-1.11-0.28-1.94-0.83-2.51c-0.55-0.57-1.33-0.85-2.33-0.85c-0.75,0-1.4,0.15-1.95,0.45c-0.55,0.3-0.98,0.73-1.28,1.3
				s-0.45,1.25-0.45,2.05v5.52h-1.42v-14.84h1.42v7.22l-0.28-0.54c0.33-0.76,0.87-1.36,1.6-1.79
				C300.81,156.53,301.69,156.31,302.7,156.31z"/>
			<path class="st0" d="M319.82,156.31c0.85,0,1.6,0.16,2.25,0.49s1.15,0.82,1.52,1.49s0.55,1.51,0.55,2.52v6.1h-1.42v-5.96
				c0-1.11-0.28-1.94-0.83-2.51c-0.55-0.57-1.33-0.85-2.33-0.85c-0.75,0-1.4,0.15-1.95,0.45c-0.55,0.3-0.98,0.73-1.28,1.3
				s-0.45,1.25-0.45,2.05v5.52h-1.42v-10.5h1.36v2.88l-0.22-0.54c0.33-0.76,0.87-1.36,1.6-1.79
				C317.93,156.53,318.81,156.31,319.82,156.31z"/>
			<path class="st0" d="M332.3,154.09c-0.29,0-0.54-0.1-0.74-0.3c-0.2-0.2-0.3-0.44-0.3-0.72s0.1-0.52,0.3-0.71s0.45-0.29,0.74-0.29
				c0.29,0,0.54,0.09,0.74,0.28c0.2,0.19,0.3,0.42,0.3,0.7c0,0.29-0.1,0.54-0.29,0.74C332.86,153.99,332.61,154.09,332.3,154.09z
				 M331.58,166.91v-10.5H333v10.5H331.58z"/>
			<path class="st0" d="M344.74,167.01c-1,0-1.9-0.23-2.69-0.68s-1.42-1.08-1.87-1.88s-0.68-1.73-0.68-2.8
				c0-1.05,0.23-1.98,0.68-2.79s1.08-1.43,1.87-1.88c0.79-0.45,1.69-0.67,2.69-0.67c0.93,0,1.76,0.21,2.49,0.62
				c0.73,0.41,1.3,1.02,1.73,1.81c0.43,0.79,0.64,1.76,0.64,2.91c0,1.15-0.22,2.12-0.65,2.91c-0.43,0.79-1.01,1.4-1.74,1.82
				C346.48,166.8,345.66,167.01,344.74,167.01z M344.84,165.75c0.75,0,1.42-0.17,2.01-0.51s1.06-0.82,1.4-1.44s0.51-1.34,0.51-2.15
				s-0.17-1.53-0.51-2.14s-0.81-1.09-1.4-1.44s-1.26-0.52-2.01-0.52c-0.73,0-1.39,0.17-1.98,0.52s-1.05,0.83-1.4,1.44
				s-0.52,1.33-0.52,2.14s0.17,1.53,0.52,2.15c0.35,0.62,0.81,1.1,1.4,1.44C343.45,165.58,344.11,165.75,344.84,165.75z
				 M348.74,170.79v-7l0.2-2.12l-0.14-2.1v-3.16h1.36v14.38H348.74z"/>
			<path class="st0" d="M362.06,167.01c-0.89,0-1.67-0.17-2.34-0.5c-0.67-0.33-1.18-0.83-1.55-1.5s-0.55-1.5-0.55-2.5v-6.1h1.42
				v5.94c0,1.12,0.28,1.96,0.83,2.53s1.33,0.85,2.33,0.85c0.73,0,1.37-0.15,1.91-0.45s0.95-0.74,1.24-1.31
				c0.29-0.57,0.43-1.26,0.43-2.06v-5.5h1.42v10.5h-1.36v-2.88l0.22,0.52c-0.33,0.77-0.85,1.38-1.55,1.81
				C363.81,166.79,362.99,167.01,362.06,167.01z"/>
			<path class="st0" d="M379.22,167.01c-1.09,0-2.05-0.23-2.88-0.69c-0.83-0.46-1.47-1.09-1.94-1.9s-0.7-1.73-0.7-2.77
				c0-1.04,0.22-1.96,0.67-2.76s1.06-1.43,1.84-1.89s1.66-0.69,2.63-0.69c0.99,0,1.86,0.22,2.63,0.67c0.77,0.45,1.37,1.07,1.81,1.88
				s0.66,1.74,0.66,2.79c0,0.07,0,0.14-0.01,0.21s-0.01,0.15-0.01,0.23h-9.14v-1.06h8.38l-0.56,0.42c0-0.76-0.16-1.44-0.49-2.03
				s-0.77-1.06-1.33-1.39s-1.21-0.5-1.94-0.5c-0.72,0-1.37,0.17-1.94,0.5s-1.02,0.8-1.34,1.4c-0.32,0.6-0.48,1.29-0.48,2.06v0.22
				c0,0.8,0.18,1.5,0.53,2.11s0.85,1.08,1.48,1.42s1.36,0.51,2.17,0.51c0.64,0,1.24-0.11,1.79-0.34c0.55-0.23,1.03-0.57,1.43-1.04
				l0.8,0.92c-0.47,0.56-1.05,0.99-1.75,1.28S380.06,167.01,379.22,167.01z"/>
		</g>
	</g>
</g>
<g id="Layer_4">
</g>
<g id="Layer_3">
	<g>
		<g>
			<path class="st0" d="M10.02,77.7h26.69v8.09H19.9v10.02h15.72v8.02H19.9v17.57h-9.88C10.02,121.4,10.02,77.7,10.02,77.7z"/>
			<path class="st0" d="M54.01,77.7v25.13c0,7.55,2.9,11.4,7.92,11.4c5.19,0,8.04-3.66,8.04-11.4V77.7h9.88v24.52
				c0,13.48-6.82,19.89-18.25,19.89c-11.03,0-17.47-6.12-17.47-20.01V77.7H54.01z"/>
			<path class="st0" d="M96.84,86H85.05v-8.3h33.63V86h-11.96v35.4h-9.88L96.84,86L96.84,86z"/>
			<path class="st0" d="M133.75,77.7v25.13c0,7.55,2.9,11.4,7.92,11.4c5.19,0,8.04-3.66,8.04-11.4V77.7h9.88v24.52
				c0,13.48-6.82,19.89-18.25,19.89c-11.03,0-17.47-6.12-17.47-20.01V77.7H133.75z"/>
			<path class="st0" d="M168.15,78.3c3.17-0.54,7.88-0.94,13.13-0.94c6.48,0,11.02,0.99,14.14,3.46c2.61,2.07,4.04,5.14,4.04,9.16
				c0,5.54-3.96,9.39-7.71,10.74v0.21c3.03,1.22,4.74,4.12,5.84,8.14c1.35,4.94,2.67,10.64,3.53,12.33H191
				c-0.67-1.26-1.76-4.78-3.01-10.19c-1.22-5.46-3.05-6.92-7.12-6.97h-2.94v17.16h-9.79L168.15,78.3L168.15,78.3z M177.94,97.09
				h3.87c4.9,0,7.83-2.5,7.83-6.3c0-4-2.74-6.05-7.26-6.07c-2.37,0-3.75,0.15-4.45,0.33L177.94,97.09L177.94,97.09z"/>
		</g>
		<g>
			<path class="st0" d="M263.43,111.2c2.62,1.4,6.73,2.74,10.95,2.74c4.54,0,6.94-1.88,6.94-4.76c0-2.68-2.08-4.27-7.32-6.11
				c-7.29-2.59-12.05-6.56-12.05-12.94c0-7.45,6.26-13.12,16.53-13.12c4.98,0,8.58,0.99,11.16,2.2l-2.18,7.92
				c-1.73-0.83-4.88-2.07-9.12-2.07c-4.3,0-6.36,1.99-6.36,4.23c0,2.78,2.42,4,8.09,6.14c7.74,2.89,11.32,6.91,11.32,13.08
				c0,7.3-5.59,13.56-17.62,13.56c-4.95,0-9.91-1.35-12.34-2.72L263.43,111.2z"/>
			<path class="st0" d="M306.55,86h-11.79v-8.3h33.63V86h-11.96v35.4h-9.88V86z"/>
			<path class="st0" d="M343.52,77.7v43.7h-9.88V77.7H343.52z"/>
			<path class="st0" d="M384.18,120.2c-1.77,0.88-5.91,1.88-11.17,1.88c-15.13,0-22.93-9.46-22.93-21.91
				c0-14.9,10.68-23.15,23.87-23.15c5.14,0,9.04,1,10.76,1.94l-2.01,7.81c-1.96-0.86-4.77-1.64-8.3-1.64
				c-7.79,0-13.91,4.75-13.91,14.46c0,8.76,5.17,14.27,13.96,14.27c3.03,0,6.3-0.6,8.26-1.41L384.18,120.2z"/>
		</g>
		<rect x="207.7" y="127.11" class="st0" width="44.43" height="7.4"/>
		<polygon class="st0" points="240.56,127.11 219.28,127.11 223.67,79.3 236.18,79.3 236.19,79.41 		"/>
		<path class="st0" d="M232.91,75.76c-0.51-0.85-1.65-1.44-2.99-1.44c-1.34,0-2.49,0.59-2.99,1.44h-3.64v3.97h13.27v-3.97H232.91z"
			/>
		<g>
			<polyline class="st1" points="212.78,128.11 220.67,118.66 239.73,118.66 220.82,111.76 239.19,111.76 221.51,104.21 
				238.41,104.21 222.08,98.09 237.8,98.09 222.64,91.91 237.28,91.91 223.33,85.73 236.59,85.73 			"/>
			<polyline class="st1" points="247.06,128.11 239.17,118.66 220.1,118.66 239.01,111.76 220.65,111.76 238.32,104.21 
				221.43,104.21 237.76,98.09 222.03,98.09 237.19,91.91 222.55,91.91 236.51,85.73 223.24,85.73 			"/>
		</g>
		<g>
			<path class="st0" d="M228.52,3.69v7.4c-13.4,0.14-25.71,4.87-35.41,12.69l-5.2-5.32c9.14-7.52,20.37-12.6,32.68-14.22
				C223.19,3.9,225.83,3.71,228.52,3.69z"/>
			<path class="st0" d="M271.37,18.46l-5.2,5.32c-9.7-7.82-22.01-12.55-35.41-12.69v-7.4c2.69,0.02,5.33,0.21,7.93,0.55
				C251,5.86,262.24,10.94,271.37,18.46z"/>
		</g>
		<g>
			<path class="st0" d="M228.52,19.78v8.32c-8.77,0.13-16.87,3.04-23.44,7.9l-5.87-5.99C207.33,23.71,217.49,19.91,228.52,19.78z"/>
			<path class="st0" d="M260.07,30.01L254.2,36c-6.57-4.86-14.67-7.77-23.44-7.9v-8.32C241.79,19.91,251.95,23.71,260.07,30.01z"/>
		</g>
		<g>
			<path class="st0" d="M228.52,36.5v8.04c-4.29,0.11-8.3,1.34-11.74,3.42l-5.74-5.87C216.03,38.67,222.04,36.62,228.52,36.5z"/>
			<path class="st0" d="M248.24,42.09l-5.74,5.86c-3.45-2.07-7.45-3.3-11.74-3.41V36.5C237.24,36.62,243.25,38.67,248.24,42.09z"/>
		</g>
		<g>
			<path class="st0" d="M229.02,56.56v11.06c-2.78-0.3-4.95-2.67-4.95-5.53C224.07,59.22,226.24,56.86,229.02,56.56z"/>
			<path class="st0" d="M235.21,62.09c0,2.86-2.16,5.23-4.95,5.53V56.56C233.05,56.86,235.21,59.22,235.21,62.09z"/>
		</g>
		<g>
			<rect x="212.3" y="121.41" class="st2" width="35.23" height="5.7"/>
			<rect x="218.04" y="121.41" class="st2" width="23.74" height="5.7"/>
			<rect x="225.92" y="121.41" class="st2" width="8" height="5.7"/>
		</g>
	</g>
</g>
</svg>
