<?xml version="1.0" encoding="utf-8"?>
<!-- Generator: Adobe Illustrator 23.0.3, SVG Export Plug-In . SVG Version: 6.00 Build 0)  -->
<svg version="1.1" id="Layer_1" xmlns="http://www.w3.org/2000/svg" xmlns:xlink="http://www.w3.org/1999/xlink" x="0px" y="0px"
	 viewBox="0 0 205.39 205.39" style="enable-background:new 0 0 205.39 205.39;" xml:space="preserve">
<style type="text/css">
	.st0{fill:#549CD5;}
	.st1{fill:#FFFFFF;}
</style>
<g>
	<circle class="st0" cx="102.7" cy="102.7" r="102.7"/>
	<path class="st1" d="M114.65,78.63c-3.12-0.14-4.06-0.17-11.95-0.17s-8.83,0.03-11.95,0.17C82.73,79,79,82.79,78.63,90.75
		c-0.14,3.12-0.17,4.05-0.17,11.95s0.03,8.83,0.17,11.95c0.37,7.94,4.08,11.76,12.12,12.12c3.11,0.14,4.05,0.17,11.95,0.17
		c7.9,0,8.83-0.03,11.95-0.17c8.02-0.36,11.75-4.17,12.12-12.12c0.14-3.12,0.17-4.06,0.17-11.95s-0.03-8.83-0.17-11.95
		C126.4,82.8,122.66,79,114.65,78.63z M102.7,117.88c-8.38,0-15.19-6.8-15.19-15.19c0-8.38,6.8-15.18,15.19-15.18
		s15.19,6.8,15.19,15.18S111.08,117.88,102.7,117.88z M118.48,90.46c-1.96,0-3.55-1.59-3.55-3.55s1.59-3.55,3.55-3.55
		c1.96,0,3.55,1.59,3.55,3.55C122.03,88.87,120.44,90.46,118.48,90.46z M112.55,102.7c0,5.44-4.41,9.85-9.85,9.85
		s-9.85-4.41-9.85-9.85s4.41-9.85,9.85-9.85S112.55,97.25,112.55,102.7z M102.7,52.01c-27.99,0-50.69,22.7-50.69,50.69
		s22.7,50.69,50.69,50.69s50.69-22.7,50.69-50.69S130.69,52.01,102.7,52.01z M132.09,114.89c-0.49,10.75-6.47,16.71-17.2,17.2
		c-3.16,0.14-4.16,0.18-12.19,0.18s-9.04-0.03-12.19-0.18c-10.75-0.49-16.71-6.46-17.2-17.2c-0.14-3.15-0.18-4.16-0.18-12.19
		s0.03-9.04,0.18-12.19c0.49-10.75,6.46-16.71,17.2-17.2c3.16-0.15,4.16-0.18,12.19-0.18s9.04,0.03,12.19,0.18
		c10.75,0.49,16.71,6.47,17.2,17.2c0.14,3.16,0.18,4.16,0.18,12.19S132.23,111.74,132.09,114.89z"/>
</g>
</svg>
