<?xml version="1.0" encoding="utf-8"?>
<!-- Generator: Adobe Illustrator 23.0.3, SVG Export Plug-In . SVG Version: 6.00 Build 0)  -->
<svg version="1.1" id="Layer_1" xmlns="http://www.w3.org/2000/svg" xmlns:xlink="http://www.w3.org/1999/xlink" x="0px" y="0px"
	 viewBox="0 0 464.73 194.73" style="enable-background:new 0 0 464.73 194.73;" xml:space="preserve">
<path d="M465.05,107.82c-0.25,1.82-0.52,3.64-0.76,5.47c-3.03,23.08-17.87,40.45-38.25,45.82c-15.7,4.13-29.93,0.4-42.5-9.5
	c-10.79-8.5-16.98-19.83-18.85-33.45c-0.38-2.74-0.57-5.53-0.59-8.29c-0.02-2.77,0.28-5.54,0.42-7.97c0.46,3.13,0.73,6.6,1.54,9.95
	c0.81,3.36,1.85,6.74,3.33,9.85c3.74,7.87,9.57,13.46,18.41,15.23c6.56,1.31,12.77-0.13,18.78-2.71
	c6.32-2.71,11.63-7.05,17.33-10.77c4.77-3.11,9.7-5.95,15.36-7c2.09-0.39,4.41-0.5,6.44,0c4.44,1.08,6.38,5.19,5.31,10.26
	c-1.45,6.88-5.6,11.97-10.97,16.15c-9.01,7.01-19.31,9.76-30.63,8.91c-3.2-0.24-6.4-0.53-9.6-0.78c-0.45-0.04-0.91,0.03-1.49,0.4
	c0.6,0.41,1.16,0.88,1.8,1.22c9.8,5.28,19.99,5.35,30.19,1.62c16.39-5.99,26.14-18.02,30.57-34.66c1.83-6.88,1.8-13.9,1.6-20.94
	c-0.02-0.76,0-1.51,0-2.27c0.13-0.04,0.27-0.07,0.4-0.11c0.46,1.83,0.98,3.66,1.37,5.51c0.34,1.58,0.53,3.19,0.79,4.79
	C465.05,105.64,465.05,106.73,465.05,107.82z"/>
<path d="M0.33,92.44c7.14,0.03,14.28,0.07,21.42,0.08c10.73,0.02,18.74,6.56,20.89,17.06c2.33,11.4-4.78,22.61-16.07,24.8
	c-3.54,0.69-7.27,0.36-10.92,0.5c-0.54,0.02-1.08,0-1.81,0c0,6.44,0,12.79,0,19.41c-4.63,0-9.07,0-13.51,0
	C0.33,133.67,0.33,113.05,0.33,92.44z M13.83,121.7c2.9,0,5.72,0.04,8.54-0.01c4.32-0.07,7.28-3.32,7.3-7.96
	c0.02-4.68-2.99-7.95-7.4-8.01c-2.24-0.03-4.47-0.01-6.71,0c-0.57,0-1.14,0.07-1.73,0.1C13.83,111.17,13.83,116.33,13.83,121.7z"/>
<path d="M201.93,195.2c-0.72-0.21-1.44-0.41-2.15-0.64c-1.53-0.51-2.87-1.25-3.67-2.97c0.8-0.52,1.52-1.09,2.33-1.47
	c0.32-0.15,0.92,0,1.24,0.22c1.66,1.2,3.45,1.47,4.84,0.57c1.57-1.02,1.61-2.56,1.36-4.52c-2.14,1.79-4.46,2.51-6.81,1.25
	c-1.27-0.68-2.48-1.83-3.23-3.06c-1.89-3.09-1.1-7.37,1.53-9.71c2.31-2.05,5.35-2.06,8.31,0.06c0.56-1.71,1.98-1.23,3.17-1.13
	c0.3,0.02,0.78,0.72,0.79,1.12c0.05,4.63,0.1,9.26-0.01,13.89c-0.07,2.99-2.24,5.29-5.19,5.92c-0.52,0.11-1.01,0.32-1.52,0.48
	C202.58,195.2,202.25,195.2,201.93,195.2z M202.4,177.05c-2.25-0.02-3.81,1.48-3.83,3.68c-0.01,2.11,1.56,3.75,3.64,3.79
	c2.19,0.04,3.78-1.55,3.79-3.78C206,178.49,204.62,177.07,202.4,177.05z"/>
<path d="M417.29,1.27c4.81,4.19,8.2,9.28,11.08,14.75c3.12,5.92,4.26,12.16,3.31,18.81c-0.81,5.65-2.94,10.81-5.72,15.7
	c-3.39,5.97-7.05,11.78-10.47,17.73c-2.81,4.88-5.04,10-5.57,15.72c-0.66,7.06,1.54,13.22,5.96,18.61c2.61,3.18,2.72,3.34-0.41,5.98
	c-4.84,4.07-10.04,7.52-16.26,9.09c-7.88,1.99-14.38-0.2-19.5-6.54c-9.87-12.22-9.78-29.03,0.3-41.06
	c5.99-7.15,13.22-12.93,20.39-18.83c8.69-7.14,15.42-15.85,18.64-26.84c1.6-5.47,1-10.99-0.27-16.46
	C418.26,5.72,417.78,3.49,417.29,1.27z"/>
<path d="M158.49,123.39c-0.39,12.29-5.19,22.18-16.09,28.45c-12.19,7.02-27.6,4.07-36.88-6.8c-10.43-12.21-10.29-31.56,0.33-43.61
	c14.62-16.59,41.15-12.11,49.88,8.42C157.55,114.17,158.46,118.68,158.49,123.39z M145.24,123.49c-0.2-1.62-0.3-3.26-0.63-4.85
	c-1.51-7.2-7.17-12.56-14.08-13.42c-7.64-0.94-14.32,2.51-17.59,9.21c-2,4.09-2.36,8.42-1.67,12.91
	c1.67,10.84,12.84,17.31,23.05,13.29C141.04,137.99,145.09,131.57,145.24,123.49z"/>
<path d="M63.02,154.24c-4.51,0-8.76,0-13.15,0c0-20.52,0-41.03,0-61.49c0.09-0.08,0.14-0.14,0.18-0.14
	c8.55,0.05,17.14-0.34,25.65,0.29c8.54,0.63,15.53,7.95,16.9,16.5c1.51,9.4-1.6,16.8-9.71,21.98c-0.13,0.09-0.24,0.21-0.51,0.45
	c4.03,7.4,8.08,14.82,12.25,22.47c-4.73,0-9.18,0.03-13.64-0.05c-0.4-0.01-0.92-0.65-1.17-1.11c-3.2-5.82-6.4-11.65-9.52-17.51
	c-0.61-1.14-1.26-1.76-2.63-1.61c-1.45,0.16-3.53-0.42-4.22,0.34c-0.79,0.87-0.41,2.85-0.42,4.35c-0.03,4.53-0.01,9.05-0.01,13.58
	C63.02,152.88,63.02,153.47,63.02,154.24z M63.11,121.7c3.07,0,5.99,0,8.92,0c4.33-0.01,7.01-2.29,7.74-6.58
	c0.69-4.06-1.69-8.73-5.24-9.16c-3.73-0.45-7.56-0.1-11.42-0.1C63.11,111.11,63.11,116.26,63.11,121.7z"/>
<path d="M243.88,92.66c0,4.46,0,8.9,0,13.49c-7.57,0-15.08,0-22.71,0c0,3.45,0,6.75,0,10.28c6.86,0,13.69,0,20.6,0
	c0,4.52,0,8.81,0,13.26c-6.84,0-13.63,0-20.57,0c0,3.78,0,7.38,0,11.17c7.72,0,15.38,0,23.13,0c0,4.51,0,8.85,0,13.31
	c-12.12,0-24.2,0-36.43,0c0-20.44,0-40.91,0-61.52C219.84,92.66,231.8,92.66,243.88,92.66z"/>
<path d="M304.36,105.58c-3.77,2.36-7.45,4.66-11.21,7.02c-0.2-0.22-0.39-0.39-0.53-0.6c-3.9-5.9-9.6-7.63-16.23-6.68
	c-6.67,0.96-11.12,4.89-13.03,11.32c-1.95,6.57-1.49,12.97,2.56,18.75c6,8.58,21.32,8.66,26.7-0.39c0.11-0.18,0.26-0.34,0.47-0.62
	c3.73,2.28,7.43,4.54,11.27,6.89c-1.98,3.61-4.64,6.49-7.88,8.83c-15.33,11.06-37.28,4.97-44.44-12.65
	c-5.29-13.01-4.04-25.6,5.33-36.44c12.41-14.36,35.65-12.63,46.11,3.07C303.76,104.53,304.01,105,304.36,105.58z"/>
<path d="M201.84,92.52c0,4.62,0,9.02,0,13.61c-4.96,0-9.89,0-14.95,0c0,16.09,0,31.98,0,48.02c-4.47,0-8.79,0-13.32,0
	c0-15.87,0-31.8,0-47.95c-5.06,0-9.93,0-14.97,0c0-4.41-0.02-8.59,0.04-12.77c0-0.3,0.51-0.68,0.86-0.87
	c0.25-0.14,0.64-0.03,0.97-0.03c13.19,0,26.38,0,39.57,0C200.57,92.52,201.11,92.52,201.84,92.52z"/>
<path d="M334.94,106.1c0,16.13,0,32.07,0,48.1c-4.51,0-8.78,0-13.29,0c0-16,0-31.93,0-48c-5.06,0-9.89,0-14.84,0
	c0-4.58,0-9.01,0-13.56c14.33,0,28.64,0,43.11,0c0,4.41,0,8.84,0,13.47C345.02,106.1,340.09,106.1,334.94,106.1z"/>
<path d="M437.03,34.6c0,3.47,0.43,7-0.09,10.38c-1,6.38-2.54,12.67-3.86,19c-0.98,4.7-1.57,9.42,0.64,13.92
	c0.85,1.73,2.01,3.38,3.33,4.78c1.76,1.88,4.04,2.53,6.58,1.62c2.61-0.94,4-2.86,4.49-5.54c0.68-3.8-0.23-7.47-0.83-11.17
	c-0.08-0.47-0.15-0.95-0.23-1.42c0.13-0.09,0.26-0.18,0.39-0.28c1.07,1.24,2.25,2.4,3.18,3.74c3.77,5.43,5.7,11.62,6.79,18.04
	c0.81,4.76,1.11,9.62,1.62,14.43c0.06,0.52,0.01,1.05,0.01,1.98c-1.26-1.02-2.29-1.72-3.15-2.57c-4.21-4.16-9.46-5.08-15.06-5.02
	c-5.8,0.07-10.93,2.22-15.82,5.1c-0.84,0.5-1.67,1.01-2.47,1.5c-7.81-5.87-10.48-13.7-7.2-22.99c1.78-5.05,4.36-9.83,6.79-14.63
	c3.35-6.6,7.05-13.02,10.3-19.66c1.61-3.3,2.56-6.92,3.82-10.39c0.11-0.3,0.27-0.57,0.41-0.86
	C436.79,34.59,436.91,34.59,437.03,34.6z"/>
<path d="M116.1,174.76c3.11-2.03,4.7-1.97,7.3,0.07c1.39-0.52,2.64-1.29,3.96-1.43c3.33-0.33,5.51,1.82,5.66,5.47
	c0.12,2.77-0.01,5.56,0.04,8.33c0.03,1.8-1.27,1.22-2.18,1.3c-0.97,0.08-1.85,0.1-1.81-1.36c0.08-2.5,0.03-5.01,0.02-7.52
	c-0.01-1.81-0.68-2.57-2.19-2.57c-1.47,0-2.32,0.85-2.35,2.51c-0.05,2.5-0.08,5.01,0.01,7.52c0.06,1.73-1.09,1.39-2.09,1.42
	c-1.02,0.03-1.97,0.14-1.92-1.43c0.09-2.45,0.03-4.9,0.02-7.35c-0.01-1.36-0.36-2.5-2-2.67c-1.64-0.16-2.54,0.73-2.65,2.21
	c-0.18,2.44-0.15,4.89-0.19,7.34c-0.03,1.69-1.72,2.68-3.19,1.76c-0.33-0.21-0.48-0.92-0.48-1.4c-0.04-3.7-0.06-7.41,0.01-11.11
	c0.01-0.7,0.36-1.95,0.68-1.99C113.89,173.71,115.29,173.14,116.1,174.76z"/>
<path d="M335.1,174.77c2.89-2.04,4.69-1.97,7.2,0.01c1.47-0.51,2.78-1.27,4.16-1.39c3.23-0.28,5.38,1.9,5.51,5.46
	c0.1,2.78-0.02,5.56,0.04,8.34c0.03,1.33-0.76,1.37-1.7,1.31c-0.92-0.06-2.09,0.34-2.09-1.28c0-2.56,0-5.12-0.09-7.68
	c-0.04-1.2-0.44-2.28-1.87-2.48c-1.68-0.24-2.74,0.71-2.77,2.57c-0.04,2.45-0.09,4.91,0.01,7.36c0.07,1.65-0.93,1.52-2,1.52
	c-1.09,0-2.07,0.12-2-1.53c0.1-2.34,0.04-4.69,0.02-7.03c-0.01-1.99-0.63-2.82-2.08-2.9c-1.6-0.09-2.62,0.86-2.7,2.77
	c-0.1,2.18-0.03,4.36-0.04,6.54c-0.01,2.05-0.98,2.76-2.97,2.07c-0.32-0.11-0.68-0.7-0.69-1.07c-0.05-4.14-0.05-8.28,0-12.42
	c0-0.39,0.4-1.12,0.6-1.12c1.02,0.03,2.04,0.24,3.05,0.43C334.83,174.27,334.93,174.55,335.1,174.77z"/>
<path d="M278.96,174.94c0-2.06,0.09-3.84-0.03-5.6c-0.09-1.45,0.42-1.88,1.85-1.86c1.36,0.02,1.94,0.3,1.91,1.81
	c-0.08,5.72-0.01,11.44-0.07,17.16c-0.01,0.68-0.44,1.89-0.77,1.92c-1.11,0.1-2.58,0.77-3.21-1.14c-1.84,1.21-3.81,2.27-5.94,1.25
	c-1.32-0.63-2.64-1.6-3.5-2.75c-2.23-3-1.78-7.72,0.74-10.43C272.19,172.88,274.95,172.68,278.96,174.94z M275.19,177.07
	c-2.07,0.03-3.67,1.77-3.65,3.98c0.02,2.32,1.63,3.96,3.85,3.93c2.05-0.03,3.6-1.8,3.55-4.05
	C278.89,178.67,277.3,177.04,275.19,177.07z"/>
<path d="M359.51,174.94c2.53-1.98,5.04-2.19,7.52-0.7c2.6,1.56,3.91,5.46,3.16,8.69c-1,4.33-4.48,6.73-8.21,5.6
	c-0.85-0.26-1.62-0.81-2.76-1.4c0,1.93-0.07,3.69,0.02,5.44c0.08,1.37-0.28,1.94-1.79,1.93c-1.47-0.01-1.99-0.4-1.97-1.94
	c0.08-5.55,0.01-11.1,0.06-16.65c0.01-0.71,0.39-2.03,0.63-2.04C357.33,173.84,358.85,172.92,359.51,174.94z M362.89,184.97
	c2.16-0.02,3.67-1.62,3.7-3.92c0.03-2.26-1.54-3.98-3.66-3.98c-2.11-0.01-3.7,1.68-3.71,3.95
	C359.21,183.31,360.77,184.99,362.89,184.97z"/>
<path d="M311.16,171.76c-1.11,0.7-2.14,1.35-3.14,1.98c-3.94-2.9-7.44-2.98-9.62-0.31c-2.17,2.65-1.87,7.51,0.6,9.73
	c2.42,2.17,6.03,1.82,8.83-0.94c0.34,0.18,0.72,0.35,1.07,0.56c2.63,1.62,2.67,2.08,0.12,3.99c-3.09,2.32-6.48,2.73-10.02,1.21
	c-3.5-1.5-5.46-4.3-5.93-8.01c-0.57-4.43,0.42-8.37,4.29-11.11c4.05-2.88,10-2.06,13.13,1.78
	C310.72,170.92,310.88,171.27,311.16,171.76z"/>
<path d="M5.34,167.53c0.82,0,1.64-0.01,2.45,0c4.07,0.03,7.08,2.99,7.12,6.98c0.04,4.12-2.89,7.11-7.05,7.16
	c-3.19,0.03-3.05-0.27-3.04,3.17c0,0.55-0.06,1.1,0.01,1.63c0.19,1.53-0.34,2.08-1.97,2.09c-1.68,0.01-2.13-0.49-2.1-2.14
	c0.1-5.72,0.08-11.45,0.01-17.17c-0.02-1.39,0.45-1.86,1.79-1.74C3.48,167.6,4.41,167.53,5.34,167.53z M4.81,174.57
	c0,3.08,0,3.08,2.28,3.08c2.48,0,3.77-1.06,3.73-3.05c-0.04-2.06-1.32-3.04-3.96-3.04C4.84,171.56,4.82,171.6,4.81,174.57z"/>
<path d="M233.6,174.84c0.81-1.66,2.24-1.07,3.47-1.03c0.25,0.01,0.67,0.68,0.67,1.05c0.05,4.14,0.05,8.28,0,12.43
	c0,0.39-0.4,1.12-0.6,1.12c-1.03-0.03-2.06-0.22-3.07-0.42c-0.18-0.04-0.29-0.41-0.43-0.62c-4.02,2.12-6.88,1.77-9.06-1.04
	c-2.35-3.02-2.19-8.17,0.3-10.93C226.72,173.34,230.19,172.26,233.6,174.84z M233.93,181.02c0.01-2.35-1.46-3.95-3.63-3.95
	c-2.12,0-3.65,1.67-3.64,3.98c0.01,2.35,1.5,3.96,3.66,3.94C232.5,184.97,233.92,183.41,233.93,181.02z"/>
<path d="M376.94,182.7c0.41,2.1,2.65,3.29,4.75,2.25c1.98-0.98,2.98,0.13,4.25,1.07c-1.89,2.92-6.25,3.73-9.67,1.78
	c-2.88-1.65-3.84-4.37-3.64-7.49c0.21-3.32,2.24-5.83,5.11-6.69c5.08-1.52,9.99,2.68,9.23,7.96c-0.06,0.4-0.8,0.98-1.25,1
	c-2.34,0.1-4.68,0.04-7.03,0.05C378.12,182.63,377.54,182.68,376.94,182.7z M382.97,179.53c-0.21-1.73-1.41-2.78-3.05-2.77
	c-1.71,0.01-2.84,1-3.06,2.77C378.9,179.53,380.93,179.53,382.97,179.53z"/>
<path d="M29.5,186.08c-2.18,2.61-5.3,3.4-8.57,2.31c-2.8-0.93-4.67-3.47-4.81-6.53c-0.3-6.31,4.63-10.24,10.08-7.97
	c3.08,1.29,4.55,4.68,4.04,7.97c-0.05,0.32-0.86,0.72-1.33,0.74c-2.28,0.08-4.57,0.03-6.86,0.04c-0.57,0-1.14,0.07-1.74,0.11
	c0.56,2.1,2.63,3.25,4.65,2.25C26.99,183.98,28.06,185.1,29.5,186.08z M26.38,179.52c-0.23-1.76-1.35-2.74-3.05-2.76
	c-1.66-0.02-2.85,1.02-3.04,2.76C22.33,179.52,24.35,179.52,26.38,179.52z"/>
<path d="M82.19,182.62c0.61,2.2,2.62,3.1,4.77,2.42c2.24-0.71,2.24-0.71,4.43,1.12c-1.61,2.07-3.77,2.8-6.26,2.66
	c-3.17-0.18-5.46-1.74-6.65-4.72c-1.21-3-0.42-6.85,1.85-8.93c2.28-2.1,4.97-2.36,7.76-1.3c2.83,1.08,4.79,4.85,4.09,7.79
	c-0.1,0.41-0.87,0.9-1.35,0.92c-2.23,0.1-4.46,0.04-6.7,0.04C83.53,182.62,82.95,182.62,82.19,182.62z M88.37,179.5
	c-0.43-1.87-1.6-2.81-3.24-2.74c-1.63,0.07-2.67,0.97-2.98,2.74C84.2,179.5,86.23,179.5,88.37,179.5z"/>
<path d="M264.65,186.05c-1.51,2.26-4.4,3.26-7.32,2.62c-3.17-0.69-5.37-2.89-5.84-5.85c-0.69-4.39,1.16-7.98,4.72-9.14
	c5.15-1.69,10.15,2.51,9.45,7.89c-0.13,1.01-0.7,1.07-1.47,1.06c-2.23-0.01-4.47,0-6.7,0c-0.59,0-1.17,0-1.77,0
	c0.12,2.09,2.42,3.4,4.56,2.35C262.23,184.02,263.28,185,264.65,186.05z M255.56,179.51c2.02,0,4.03,0,6.05,0
	c-0.21-1.78-1.35-2.77-3.04-2.76C256.88,176.77,255.72,177.8,255.56,179.51z"/>
<path d="M191.57,186.03c-1.53,2.47-4.66,3.41-8.01,2.47c-3.18-0.89-5.15-3.63-5.22-7.26c-0.07-3.74,1.8-6.61,4.97-7.6
	c5.13-1.61,10.16,2.71,9.25,8.01c-0.07,0.39-0.85,0.91-1.31,0.93c-2.28,0.1-4.57,0.04-6.86,0.05c-0.58,0-1.16,0.05-1.76,0.09
	c0.4,2.11,2.6,3.29,4.71,2.24C189.33,183.97,190.32,185.06,191.57,186.03z M188.64,179.52c-0.19-1.74-1.35-2.76-3.03-2.76
	c-1.66-0.01-2.85,1.02-3.05,2.76C184.59,179.52,186.61,179.52,188.64,179.52z"/>
<path d="M320.71,173.33c4.13,0.01,7.37,3.41,7.38,7.74c0.01,4.2-3.41,7.77-7.44,7.76c-4.07-0.01-7.3-3.47-7.31-7.82
	C313.34,176.64,316.52,173.32,320.71,173.33z M324.15,181.1c0.02-2.25-1.45-3.94-3.45-3.93c-2.05,0-3.45,1.56-3.49,3.9
	c-0.04,2.18,1.35,3.75,3.37,3.8C322.7,184.91,324.13,183.4,324.15,181.1z"/>
<path d="M447.18,174.63c1.05-0.43,2-1.06,3.03-1.21c3.61-0.55,5.98,1.6,6.16,5.6c0.12,2.72-0.01,5.44,0.04,8.16
	c0.03,1.79-1.26,1.23-2.18,1.31c-0.99,0.09-1.84,0.05-1.8-1.38c0.08-2.34,0.03-4.68,0.02-7.02c-0.01-2.06-0.81-3-2.54-3.04
	c-1.81-0.05-2.89,0.93-2.96,2.91c-0.08,2.28-0.12,4.58,0,6.86c0.09,1.63-0.74,1.73-1.99,1.71c-1.2-0.02-2.09,0-2.03-1.67
	c0.11-3.59,0-7.18,0.06-10.78c0.01-0.78,0.33-2.18,0.61-2.21C444.85,173.75,446.41,173.04,447.18,174.63z"/>
<path d="M60.9,173.33c4.17,0,7.39,3.41,7.35,7.76c-0.04,4.34-3.34,7.78-7.44,7.75c-4.01-0.03-7.23-3.47-7.25-7.75
	C53.54,176.67,56.71,173.32,60.9,173.33z M57.45,181.03c0,2.36,1.34,3.85,3.47,3.83c2.08-0.01,3.49-1.59,3.48-3.89
	c-0.01-2.13-1.5-3.76-3.46-3.81C58.92,177.12,57.46,178.74,57.45,181.03z"/>
<path d="M425.54,181.05c0-4.53,3.02-7.74,7.28-7.73c4.15,0.02,7.23,3.25,7.24,7.63c0.01,4.45-3.09,7.84-7.22,7.88
	C428.74,188.88,425.54,185.47,425.54,181.05z M432.75,184.86c2.05,0.01,3.61-1.64,3.62-3.83c0.01-2.14-1.63-3.88-3.62-3.87
	c-1.95,0.01-3.47,1.66-3.5,3.79C429.22,183.2,430.7,184.85,432.75,184.86z"/>
<path d="M104.27,187.3c-0.52,0.33-0.84,0.53-1.17,0.72c-3.35,1.94-7.18,0.39-7.71-3.46c-0.45-3.26-0.25-6.62-0.31-9.93
	c0-0.27,0.21-0.65,0.44-0.78c1.61-0.96,3.48,0.12,3.48,1.97c0,2.12-0.02,4.25,0.01,6.37c0.02,1.81,0.97,2.88,2.56,2.96
	c1.57,0.07,2.86-1.1,2.92-2.87c0.09-2.34,0.11-4.69,0.01-7.02c-0.06-1.46,0.69-1.57,1.81-1.55c1.1,0.02,2.06-0.06,2.03,1.54
	c-0.07,3.7,0.02,7.41-0.05,11.11c-0.01,0.71-0.43,2-0.7,2.01C106.45,188.41,104.92,189.27,104.27,187.3z"/>
<path d="M155.63,174.46c1.58-0.42,2.89-1.01,4.23-1.08c2.6-0.15,4.74,1.65,4.9,4.23c0.2,3.26,0.11,6.53,0.1,9.8
	c0,1.55-1.24,1.02-2.06,1.09c-0.84,0.07-1.67,0.1-1.65-1.17c0.04-2.4,0.02-4.79,0-7.19c-0.02-1.93-0.85-2.97-2.41-3.08
	c-1.89-0.13-3,0.65-3.17,2.67c-0.2,2.38-0.21,4.79-0.13,7.17c0.06,1.71-0.95,1.57-2.1,1.63c-1.28,0.06-1.72-0.37-1.7-1.67
	c0.07-3.59-0.01-7.19,0.05-10.78c0.01-0.77,0.29-2.15,0.62-2.2C153.5,173.68,154.96,173.13,155.63,174.46z"/>
<path d="M394.45,169.6c0.04,0.59,0.1,0.96,0.09,1.33c-0.04,1.54-0.29,3.01,2.19,2.91c1.32-0.06,0.7,1.47,0.7,2.27
	c0,0.45-0.62,1.31-0.92,1.29c-1.97-0.14-2.1,1-1.98,2.47c0.06,0.76,0.06,1.53,0,2.29c-0.13,1.58,0.26,2.59,2.12,2.76
	c1.43,0.13,0.78,1.46,0.78,2.25c0,0.45-0.53,1.23-0.92,1.3c-3.5,0.63-5.55-1.05-5.7-4.6c-0.07-1.63-0.04-3.27-0.05-4.9
	c0-0.88-0.3-1.46-1.31-1.48c-1.65-0.03-1.06-1.31-1.15-2.17c-0.1-0.89,0.01-1.61,1.22-1.64c0.39-0.01,1.13-0.56,1.11-0.82
	C390.44,170.11,392.48,170.1,394.45,169.6z"/>
<path d="M412.87,169.71c0,0.62,0.04,1.1-0.01,1.58c-0.16,1.54,0.01,2.6,2.06,2.5c1.37-0.07,0.78,1.28,0.86,2.04
	c0.08,0.75,0.13,1.7-1.03,1.61c-1.69-0.13-2.06,0.71-1.9,2.17c0.08,0.75,0.06,1.53,0,2.28c-0.12,1.63,0.08,2.81,2.17,3.05
	c1.41,0.16,0.65,1.61,0.7,2.47c0.02,0.35-0.62,1.03-1,1.06c-3.2,0.24-5.75-0.61-5.64-4.86c0.04-1.52-0.01-3.05-0.01-4.57
	c0-0.84-0.21-1.47-1.23-1.57c-1.47-0.13-0.97-1.32-1.03-2.15c-0.06-0.78-0.05-1.52,1.09-1.64c0.4-0.04,0.97-0.52,1.08-0.91
	C409.72,170.24,409.9,170.06,412.87,169.71z"/>
<path d="M246.24,169.84c0.03,0.42,0.1,0.85,0.08,1.27c-0.07,1.51-0.11,2.79,2.1,2.68c1.35-0.07,0.75,1.3,0.84,2.05
	c0.09,0.75,0.13,1.68-1.04,1.6c-1.69-0.12-2.04,0.78-1.91,2.21c0.07,0.76,0.04,1.52,0.01,2.28c-0.08,1.58,0.25,2.7,2.17,2.98
	c1.45,0.21,0.69,1.61,0.72,2.45c0.02,0.37-0.69,1.06-1.11,1.1c-3.62,0.39-5.42-1.28-5.45-4.91c-0.01-1.41-0.04-2.83,0.01-4.24
	c0.03-1.03-0.09-1.76-1.4-1.89c-1.47-0.15-0.77-1.42-0.88-2.22c-0.1-0.71-0.08-1.38,0.97-1.53c0.47-0.07,1.15-0.63,1.23-1.06
	C242.99,170.45,243.64,169.89,246.24,169.84z"/>
<path d="M173.34,169.78c0,0.61,0.03,1.09-0.01,1.57c-0.12,1.47,0.04,2.59,2.01,2.41c1.2-0.11,0.96,0.97,0.92,1.67
	c-0.04,0.77,0.46,2.04-0.94,1.98c-1.96-0.08-2.09,1.02-1.99,2.48c0.05,0.76,0.04,1.52,0,2.28c-0.07,1.49,0.36,2.46,2.07,2.72
	c1.62,0.24,0.73,1.67,0.8,2.55c0.03,0.32-0.73,0.99-1.18,1.03c-3.66,0.32-5.34-1.28-5.38-4.99c-0.02-1.47-0.04-2.94,0-4.4
	c0.03-0.96-0.24-1.53-1.32-1.63c-1.51-0.13-0.88-1.36-0.97-2.16c-0.09-0.77-0.1-1.51,1.06-1.62c0.42-0.04,1.06-0.57,1.15-0.98
	C170.08,170.4,170.47,170.03,173.34,169.78z"/>
<path d="M37.84,169.75c0,0.66,0.04,1.2-0.01,1.73c-0.15,1.48,0.17,2.43,1.98,2.28c1.21-0.1,0.99,0.95,0.94,1.66
	c-0.05,0.76,0.48,2.05-0.93,2c-1.97-0.08-2.1,1.01-2,2.48c0.05,0.76,0.04,1.53,0,2.29c-0.08,1.51,0.36,2.46,2.07,2.72
	c1.62,0.25,0.72,1.67,0.8,2.56c0.03,0.32-0.74,0.98-1.19,1.02c-3.61,0.31-5.3-1.26-5.37-4.85c-0.03-1.53-0.03-3.05-0.01-4.58
	c0.01-0.88-0.23-1.47-1.23-1.57c-1.62-0.15-0.93-1.43-1.04-2.28c-0.12-0.84,0.07-1.47,1.17-1.53c0.38-0.02,0.95-0.55,1.04-0.94
	C34.63,170.4,34.97,170.07,37.84,169.75z"/>
<path d="M143.82,177.93c0-2.99,0.05-5.99-0.02-8.98c-0.04-1.39,0.72-1.54,1.75-1.41c0.95,0.11,2.34-0.57,2.34,1.33
	c-0.02,6.1-0.02,12.2,0,18.3c0.01,1.89-1.37,1.23-2.33,1.34c-1.03,0.11-1.79-0.02-1.76-1.41
	C143.87,184.03,143.82,180.98,143.82,177.93z"/>
<path d="M71.17,177.52c0-3.16,0.05-6.31-0.02-9.47c-0.03-1.33,0.61-1.56,1.7-1.5c1.02,0.05,2.11-0.21,2.1,1.46
	c-0.05,6.37-0.04,12.73,0,19.1c0.01,1.71-1.15,1.32-2.13,1.4c-1.15,0.09-1.69-0.25-1.66-1.53
	C71.21,183.83,71.17,180.67,71.17,177.52z"/>
<path d="M217.31,175.77c1.2-0.88,2.36-1.73,3.52-2.58c0.2,0.12,0.39,0.23,0.59,0.35c0,1.27,0.06,2.54-0.05,3.79
	c-0.02,0.27-0.65,0.6-1.06,0.7c-2.1,0.52-3.06,1.6-3.13,3.78c-0.06,1.8-0.07,3.6,0,5.39c0.05,1.34-0.76,1.37-1.7,1.31
	c-0.91-0.06-2.09,0.36-2.09-1.27c0.02-4.08,0.02-8.17,0-12.25c-0.01-1.19,0.71-1.37,1.61-1.24c0.83,0.12,2.14-0.6,2.17,1.12
	C217.18,175.21,217.27,175.55,217.31,175.77z"/>
<path d="M48.1,175.61c1.27-0.86,2.39-1.62,3.51-2.39c0.18,0.09,0.37,0.19,0.55,0.28c0,1.31,0.05,2.63-0.05,3.94
	c-0.02,0.22-0.62,0.5-1,0.58c-2.31,0.54-3.14,1.51-3.15,3.84c-0.01,1.8-0.04,3.6,0.01,5.39c0.04,1.23-0.7,1.33-1.6,1.24
	c-0.88-0.09-2.17,0.47-2.19-1.16c-0.03-4.14-0.01-8.28-0.02-12.42c0-1.07,0.66-1.32,1.51-1.18c0.82,0.14,2.12-0.68,2.28,1
	C47.99,175.05,48.06,175.36,48.1,175.61z"/>
<path d="M400.39,181.13c0-1.96,0.08-3.93-0.03-5.88c-0.08-1.47,0.7-1.55,1.81-1.55c1.14,0,1.99,0.01,1.95,1.59
	c-0.09,3.92-0.08,7.84-0.01,11.76c0.03,1.69-1.05,1.4-2.07,1.46c-1.12,0.07-1.74-0.19-1.68-1.51
	C400.46,185.05,400.39,183.09,400.39,181.13z"/>
<path d="M418.72,181.02c0-2.01,0.05-4.03-0.02-6.04c-0.04-1.38,0.85-1.3,1.74-1.25c0.85,0.05,1.98-0.37,1.97,1.18
	c-0.02,4.14-0.01,8.28-0.01,12.41c0,1.68-1.28,1.07-2.14,1.17c-0.92,0.11-1.6-0.06-1.56-1.26
	C418.76,185.16,418.72,183.09,418.72,181.02z"/>
<path d="M404.62,169.35c-0.01,1.26-1.23,2.5-2.39,2.46c-1.23-0.05-2.23-1.24-2.19-2.59c0.05-1.31,1.03-2.33,2.25-2.34
	C403.55,166.86,404.64,168.02,404.62,169.35z"/>
<path d="M420.7,166.87c1.28,0.04,2.19,1.15,2.12,2.58c-0.06,1.3-1.07,2.36-2.24,2.36c-1.21,0-2.24-1.17-2.22-2.54
	C418.39,167.89,419.42,166.83,420.7,166.87z"/>
</svg>
