<?xml version="1.0" encoding="utf-8"?>
<!-- Generator: Adobe Illustrator 23.0.3, SVG Export Plug-In . SVG Version: 6.00 Build 0)  -->
<svg version="1.1" id="Layer_1" xmlns="http://www.w3.org/2000/svg" xmlns:xlink="http://www.w3.org/1999/xlink" x="0px" y="0px"
	 viewBox="0 0 205.39 205.39" style="enable-background:new 0 0 205.39 205.39;" xml:space="preserve">
<style type="text/css">
	.st0{fill:#549CD5;}
	.st1{fill:#FFFFFF;}
</style>
<g>
	<circle class="st0" cx="102.7" cy="102.7" r="102.7"/>
	<path class="st1" d="M125.72,63.23H79.67c-9.08,0-16.45,7.36-16.45,16.45v46.05c0,9.08,7.36,16.45,16.45,16.45h46.05
		c9.08,0,16.45-7.36,16.45-16.45V79.67C142.17,70.59,134.81,63.23,125.72,63.23z M89.54,125.72h-9.87V89.54h9.87V125.72z
		 M84.61,85.37c-3.18,0-5.76-2.6-5.76-5.8c0-3.2,2.58-5.8,5.76-5.8s5.76,2.6,5.76,5.8C90.36,82.77,87.79,85.37,84.61,85.37z
		 M129.01,125.72h-9.87v-18.43c0-11.08-13.16-10.24-13.16,0v18.43h-9.87V89.54h9.87v5.81c4.59-8.51,23.02-9.13,23.02,8.14V125.72z"
		/>
</g>
</svg>
